<svg width="32" height="29" viewBox="0 0 32 29" fill="none" xmlns="http://www.w3.org/2000/svg">
<path d="M0.673307 23.6114C0.838476 22.3369 0.895172 21.0585 0.763776 19.7785C0.684009 19.0015 0.569696 18.2279 0.467297 17.4533C0.345878 16.5347 1.03319 15.6251 1.94825 15.5034C2.0881 15.4848 2.23077 15.4771 2.37175 15.4805C2.50769 15.4836 2.64314 15.5076 2.77429 15.5219C2.67125 15.3488 2.5549 15.1827 2.46846 15.0023C2.24385 14.5336 2.2067 14.0383 2.29444 13.5303C2.59355 11.7986 2.76209 10.0559 2.71906 8.29672C2.69625 7.3639 2.62725 6.43393 2.49665 5.50958C2.4246 4.99961 2.32397 4.49315 2.26707 3.98168C2.11726 2.63518 2.99893 1.59122 4.20483 1.42069C4.50723 1.37792 4.82118 1.42173 5.12962 1.41559C5.51998 1.40781 5.91111 1.4026 6.30019 1.37343C7.31645 1.29722 8.3278 1.28463 9.31814 1.57241C9.5726 1.64636 9.81618 1.75719 10.0673 1.84363C10.1148 1.85997 10.1889 1.86172 10.2261 1.83542C10.7464 1.46776 11.3228 1.33928 11.9492 1.4198C12.5451 1.49639 13.14 1.50098 13.7349 1.41247C14.1912 1.34458 14.6333 1.39756 15.0641 1.56276C15.1133 1.58161 15.1833 1.58084 15.232 1.56081C15.6257 1.39881 16.0331 1.35088 16.4561 1.37645C17.4441 1.43617 18.4324 1.42624 19.4213 1.38403C19.6973 1.37225 19.9758 1.4201 20.2532 1.43819C20.3326 1.44337 20.4152 1.4535 20.4917 1.43833C20.8045 1.37634 21.1145 1.40144 21.4278 1.43718C21.9936 1.50174 22.5601 1.49385 23.1244 1.40954C23.4697 1.35794 23.8093 1.38716 24.1465 1.47239C24.2017 1.48634 24.2632 1.48213 24.3211 1.47753C24.5935 1.45587 24.8657 1.43115 25.1539 1.4137C25.2176 1.4802 25.2568 1.55063 25.3146 1.59883C25.4526 1.714 25.5997 1.81839 25.7426 1.9277C25.9193 2.06277 26.1028 2.19021 26.2696 2.33651C26.3953 2.44674 26.3873 2.49646 26.2667 2.60984C26.2078 2.66523 26.1408 2.71257 26.0748 2.7598C25.755 2.98859 25.4343 3.21611 25.1037 3.43944C24.7198 3.39042 24.6001 3.51387 24.6811 3.87949C24.9686 5.17728 25.0978 6.49178 25.0995 7.8193C25.1001 8.29995 25.0964 8.78146 25.0678 9.26097C25.0513 9.53736 24.9616 9.80576 24.7439 9.99952C24.3781 10.325 23.7714 10.2177 23.5298 9.791C23.3637 9.49763 23.3154 9.17336 23.3191 8.84534C23.3255 8.26525 23.3313 7.68387 23.3743 7.10579C23.4279 6.38655 23.5121 5.66929 23.5965 4.95277C23.6416 4.56945 23.7157 4.18955 23.7755 3.80793C23.8204 3.52193 23.6689 3.38585 23.3816 3.41463C22.9634 3.45652 22.543 3.49361 22.1233 3.49733C21.7682 3.50048 21.4121 3.45912 21.0574 3.42666C20.7542 3.3989 20.6274 3.51633 20.6583 3.8178C20.661 3.84336 20.667 3.86855 20.6704 3.89405C20.7776 4.70705 20.9167 5.51745 20.9833 6.33377C21.0626 7.30546 21.072 8.28268 21.1287 9.25651C21.1439 9.51897 21.1901 9.78833 21.275 10.0364C21.5166 10.7419 22.0521 11.1588 22.7238 11.4241C22.8338 11.4675 22.9474 11.502 23.0869 11.5501C23.0042 12.0518 22.9292 12.5479 22.8387 13.0412C22.7814 13.3532 22.6945 13.6596 22.6332 13.971C22.5896 14.1925 22.7045 14.3065 22.9302 14.2876C22.9559 14.2854 22.9813 14.2808 23.0069 14.2776C23.6405 14.1998 24.2755 14.1879 24.9117 14.2372C25.0659 14.2491 25.2195 14.2676 25.3733 14.2842C25.6457 14.3136 25.7734 14.1769 25.7211 13.9105C25.7153 13.8811 25.7074 13.852 25.7024 13.8224C25.5801 13.0947 25.4584 12.367 25.3358 11.6394C25.3243 11.5713 25.35 11.546 25.4164 11.5228C25.6305 11.4477 25.8489 11.3771 26.0503 11.2748C26.8257 10.8811 27.2644 10.2591 27.2954 9.37461C27.3127 8.88048 27.3219 8.38602 27.3447 7.89217C27.3695 7.35554 27.3918 6.81817 27.4407 6.28346C27.4951 5.68944 27.5783 5.09807 27.654 4.498C27.8207 4.4061 27.8997 4.43813 27.9113 4.61224C27.9276 4.85625 27.9251 5.10147 27.9332 5.34608C27.94 5.55179 27.9382 5.75889 27.9632 5.96254C27.9846 6.13675 28.1193 6.17853 28.2321 6.04269C28.3792 5.86554 28.5028 5.66861 28.6328 5.47762C28.7582 5.29334 28.8704 5.09952 29.0042 4.92176C29.1015 4.79256 29.1847 4.79491 29.2676 4.92834C29.3779 5.10577 29.4662 5.29678 29.564 5.48195C29.5204 5.90015 29.4596 6.3174 29.4366 6.73672C29.3845 7.68445 29.3573 8.63352 29.3083 9.58144C29.2601 10.5128 28.931 11.3385 28.3112 12.0365C28.1044 12.2694 27.8595 12.4691 27.6255 12.6765C27.5696 12.7261 27.5505 12.7613 27.5667 12.8366C27.6296 13.1299 27.6984 13.4233 27.7365 13.7203C27.8211 14.3814 27.6624 14.9807 27.2258 15.5121C27.2133 15.5313 27.2096 15.5391 27.2059 15.5469C27.2178 15.5424 27.2296 15.5378 27.2415 15.5332C27.6644 15.4155 28.0871 15.5318 28.5098 15.5317C28.8052 15.5317 29.1033 15.5216 29.3954 15.4813C30.422 15.3395 31.3245 15.9921 31.4883 17.0148C31.5403 17.339 31.4666 17.6559 31.4131 17.9738C31.1819 19.3474 31.0838 20.7293 31.1524 22.1222C31.199 23.0679 31.3175 24.0046 31.4807 24.9367C31.6775 26.0607 30.7547 27.0893 29.6187 27.0222C29.2072 26.9979 28.7954 26.9718 28.3835 26.9666C28.1312 26.9634 27.8675 27.0526 27.6282 27.0044C27.2005 26.9182 26.7878 27.0543 26.3674 27.0173C26.0042 26.9853 25.6387 26.9698 25.2741 26.9667C25.0346 26.9647 24.7942 27.0178 24.5552 27.011C24.0433 26.9964 23.5378 27.0563 23.0308 27.1051C22.0577 27.1988 21.108 27.1384 20.216 26.6845C20.1795 26.6659 20.1115 26.6661 20.0793 26.6882C19.6327 26.9962 19.1436 27.049 18.6146 26.994C18.2504 26.9562 17.877 26.9773 17.51 27.0033C17.1699 27.0274 16.8409 27.0193 16.5246 26.883C16.4611 26.8556 16.4233 26.8491 16.3761 26.9171C15.979 27.4891 15.4164 27.7227 14.7348 27.707C13.9267 27.6884 13.1182 27.679 12.3104 27.6497C11.5934 27.6237 10.8764 27.5872 10.1609 27.5346C9.50511 27.4863 8.91196 27.2329 8.35349 26.9012C8.10362 26.7528 7.87259 26.5727 7.64758 26.417C7.4532 26.5607 7.2512 26.71 7.03108 26.8671C6.98617 26.8673 6.95442 26.8665 6.93334 26.8511C6.71907 26.6945 6.50553 26.5369 6.29386 26.3769C6.13333 26.2555 5.97401 26.1324 5.81763 26.0057C5.72913 25.9341 5.73381 25.8514 5.81767 25.7781C5.9489 25.6634 6.06946 25.5329 6.25378 25.4968C6.30133 25.4875 6.3494 25.4568 6.38677 25.424C6.50763 25.3179 6.62362 25.2062 6.74739 25.0917C6.75703 25.0831 6.76077 25.0795 6.77148 25.0743C6.82019 25.0364 6.87275 25.007 6.90108 24.9622C6.94193 24.8976 7.00293 24.8094 6.98473 24.7548C6.96839 24.7057 6.85791 24.6855 6.7867 24.6585C6.76036 24.6485 6.72709 24.6516 6.69788 24.6554C6.62518 24.665 6.60935 24.6241 6.61435 24.5543C6.91313 23.0796 7.23622 21.6214 7.60689 20.1739C7.63146 20.2881 7.64831 20.3991 7.65103 20.5104C7.66455 21.0647 7.6749 21.6191 7.68532 22.1735C7.6955 22.7156 7.72378 23.2553 7.85885 23.7843C8.15882 24.9592 8.92473 25.6691 10.0842 25.9331C10.5484 26.0388 11.0392 26.0403 11.5191 26.0603C12.1761 26.0876 12.8342 26.0849 13.4917 26.0994C13.9387 26.1093 14.3855 26.1288 14.8324 26.1397C15.0377 26.1447 15.1174 26.0624 15.1106 25.8602C15.1064 25.7358 15.0852 25.6116 15.0864 25.4874C15.0911 25.0191 15.1013 24.5508 15.1104 24.0826C15.1151 23.8443 15.0419 23.7814 14.8093 23.8137C14.2652 23.8892 13.722 23.9773 13.1756 24.0302C12.3663 24.1085 11.5562 24.1373 10.7444 24.0255C10.0985 23.9366 9.66158 23.609 9.47371 22.9842C9.40647 22.7605 9.3693 22.5209 9.36217 22.2873C9.31151 20.6282 9.4261 18.9802 9.72535 17.3463C9.76691 17.1194 9.64742 17.011 9.41534 17.0422C9.1901 17.0725 8.96198 17.105 8.73587 17.1004C8.22523 17.0899 7.71498 17.0584 7.20471 17.0327C7.03293 17.0241 6.92629 17.1071 6.90244 17.2785C6.88114 17.4316 6.86873 17.5866 6.83655 17.7374C6.61616 18.7699 6.39183 19.8015 6.16825 20.8333C6.07578 21.2601 5.98202 21.6865 5.88313 22.1393C5.76662 21.6105 5.65086 21.1089 5.54612 20.6051C5.32082 19.5212 5.09863 18.4367 4.88095 17.3513C4.82288 17.0618 4.75281 16.9975 4.45293 17.0305C3.74196 17.1086 3.03125 17.1423 2.31841 17.0496C2.09287 17.0202 1.99801 17.1281 2.03001 17.3522C2.1095 17.9091 2.21282 18.4639 2.26141 19.0234C2.32865 19.7977 2.37109 20.5751 2.39191 21.352C2.40466 21.8277 2.35704 22.305 2.32813 22.7787C2.22173 22.6153 2.13095 22.4496 2.02189 22.297C1.98273 22.2423 1.89167 22.1814 1.83861 22.1923C1.78854 22.2027 1.72613 22.3025 1.72322 22.3654C1.71159 22.6167 1.7201 22.869 1.72298 23.121C1.72513 23.3094 1.73963 23.4983 1.731 23.6862C1.72295 23.8613 1.65434 23.9149 1.49112 23.8746C1.2716 23.8204 1.05603 23.7498 0.839764 23.683C0.782378 23.6653 0.728692 23.6356 0.673307 23.6114ZM8.40212 3.43478C7.79177 3.32558 7.17839 3.33643 6.56373 3.38642C5.9123 3.4394 5.26124 3.49355 4.60748 3.4089C4.37779 3.37916 4.24474 3.53761 4.27732 3.76848C4.38171 4.5083 4.49411 5.2472 4.5834 5.98886C4.70891 7.03146 4.7541 8.07928 4.74527 9.12949C4.73181 10.7282 4.54878 12.3105 4.28766 13.8853C4.23826 14.1832 4.36669 14.3154 4.66695 14.2774C5.26592 14.2016 5.86685 14.1868 6.4688 14.2341C6.67831 14.2505 6.88696 14.278 7.09648 14.2942C7.20614 14.3027 7.31718 14.2666 7.35679 14.1638C7.3933 14.0691 7.40363 13.9533 7.38935 13.8519C7.3337 13.4566 7.25991 13.0638 7.20031 12.669C7.15755 12.3858 7.12665 12.1007 7.08821 11.7989C7.16161 11.7989 7.2163 11.7989 7.27098 11.7989C7.79186 11.7982 8.29897 11.7207 8.77809 11.5087C9.72791 11.0883 10.3389 10.3534 10.6694 9.38868C11.1269 8.05333 11.0717 6.70317 10.6611 5.37196C10.3237 4.27784 9.53802 3.65748 8.40212 3.43478ZM15.4477 12.2894C15.0316 12.2817 14.6154 12.2739 14.1903 12.2661C14.1669 11.9823 14.1467 11.7174 14.123 11.4529C14.0077 10.1634 13.9153 8.87285 14.0015 7.57745C14.04 6.99884 14.0785 6.41931 14.1478 5.8439C14.2304 5.15798 14.3468 4.47614 14.4471 3.79233C14.4869 3.52114 14.3354 3.38416 14.0623 3.41269C13.6784 3.4528 13.2927 3.49614 12.9076 3.49791C12.5093 3.49974 12.1104 3.45885 11.7126 3.42653C11.4284 3.40344 11.2873 3.52745 11.3259 3.78928C11.4022 4.30744 11.5011 4.82332 11.5524 5.34392C11.6436 6.27136 11.7241 7.20061 11.776 8.13095C11.8283 9.06734 11.7966 10.0055 11.7032 10.939C11.6245 11.725 11.5232 12.5088 11.4274 13.2931C11.4004 13.5145 11.356 13.7337 11.3228 13.9544C11.2895 14.1759 11.3865 14.2906 11.6101 14.2944C11.6916 14.2958 11.7733 14.2889 11.8548 14.2841C12.3866 14.2523 12.9181 14.2031 13.4503 14.192C14.2451 14.1755 15.0406 14.1773 15.8356 14.1864C17.0306 14.2 18.2256 14.2234 19.4205 14.2493C19.8715 14.259 20.3227 14.2787 20.7726 14.3099C21.0995 14.3326 21.2334 14.2063 21.2093 13.8749C21.184 13.5278 21.1534 13.1799 21.1534 12.8324C21.1534 12.4204 21.186 12.0084 21.1996 11.5962C21.2061 11.3997 21.1305 11.3459 20.9452 11.4139C20.7842 11.4729 20.6291 11.5477 20.4681 11.6065C19.9093 11.8105 19.3279 11.9236 18.7434 12.0202C17.6601 12.199 16.5685 12.2806 15.4477 12.2894ZM26.7525 24.725C26.6142 23.8041 26.5098 22.8802 26.4862 21.9429C26.952 21.9429 27.401 21.9429 27.85 21.9429C27.85 22.0791 27.8562 22.2074 27.8491 22.3351C27.7967 23.2798 27.6768 24.2168 27.5194 25.1493C27.481 25.3769 27.5743 25.4746 27.8051 25.4448C28.4139 25.3661 29.0212 25.3659 29.6288 25.4588C29.8445 25.4919 29.9642 25.3618 29.929 25.144C29.8946 24.9322 29.8438 24.7222 29.822 24.5092C29.7362 23.672 29.6413 22.8351 29.5833 21.9957C29.516 21.0244 29.569 20.0529 29.6816 19.0866C29.7497 18.5027 29.8472 17.9222 29.9306 17.34C29.962 17.1205 29.8418 17.0135 29.6202 17.0421C29.3906 17.0718 29.1585 17.1028 28.9278 17.1004C28.5504 17.0965 28.1732 17.0684 27.7961 17.0459C27.5774 17.0328 27.4907 17.1163 27.5184 17.3322C27.5325 17.4429 27.5586 17.552 27.5717 17.6627C27.6574 18.3877 27.7452 19.1124 27.823 19.8382C27.8502 20.0922 27.8511 20.349 27.8642 20.607C27.3953 20.607 26.9459 20.607 26.4913 20.607C26.4893 20.5795 26.4852 20.5587 26.4867 20.5382C26.5266 19.9854 26.5527 19.4311 26.6115 18.8804C26.6676 18.3556 26.7593 17.8347 26.8324 17.3117C26.8595 17.1176 26.743 17.0089 26.5496 17.0383C26.4435 17.0544 26.3376 17.0747 26.2308 17.0828C25.7238 17.121 25.2179 17.116 24.7127 17.0493C24.4853 17.0192 24.3891 17.1212 24.4216 17.3477C24.4533 17.5686 24.4958 17.7879 24.5298 18.0085C24.6642 18.8801 24.7449 19.7567 24.7769 20.6379C24.8104 21.559 24.775 22.4779 24.6667 23.3926C24.5976 23.9766 24.5032 24.5575 24.4217 25.14C24.3884 25.3778 24.4777 25.4674 24.7172 25.445C24.9138 25.4266 25.111 25.3922 25.3071 25.3968C25.7186 25.4066 26.1299 25.4329 26.5407 25.4614C26.7559 25.4763 26.8663 25.3672 26.8291 25.1527C26.8057 25.0174 26.7805 24.8823 26.7525 24.725ZM21.0662 10.6888C21.1817 10.5867 21.1635 10.4604 21.1307 10.3316C20.9257 9.5253 20.7107 8.72137 20.518 7.9121C20.2631 6.84114 20.0918 5.75619 20.0348 4.65516C20.0186 4.34188 20.0078 4.02831 19.9904 3.7151C19.9788 3.50603 19.8721 3.40661 19.6617 3.39913C19.6145 3.39745 19.5671 3.39855 19.5199 3.39954C18.9226 3.41213 18.3254 3.43413 17.7282 3.43481C17.2385 3.43537 16.7488 3.40943 16.259 3.39752C15.9729 3.39056 15.8681 3.49121 15.852 3.77202C15.828 4.18814 15.8114 4.60506 15.7729 5.0199C15.6528 6.3128 15.416 7.58718 15.147 8.85609C14.9957 9.56967 14.8484 10.2841 14.6943 10.9971C14.6239 11.3228 14.8429 11.4172 15.0818 11.3916C15.678 11.3277 16.2747 11.3335 16.8703 11.3919C17.1836 11.4226 17.3126 11.316 17.3107 11.0014C17.3079 10.5156 17.3076 10.0298 17.3064 9.54403C17.3062 9.46783 17.3063 9.39164 17.3063 9.32542C17.3316 9.31137 17.3389 9.30378 17.3463 9.30373C17.7201 9.30141 18.094 9.29824 18.4678 9.30165C18.4905 9.30186 18.5301 9.3536 18.5324 9.38358C18.5417 9.50769 18.5415 9.63265 18.5414 9.75731C18.5413 9.99364 18.531 10.2303 18.5397 10.4662C18.5471 10.6656 18.6698 10.7678 18.869 10.7634C18.9291 10.7621 18.9891 10.752 19.0491 10.7519C19.6158 10.7504 20.1825 10.7525 20.7491 10.7473C20.8494 10.7464 20.9494 10.7167 21.0662 10.6888ZM15.3758 18.8369C15.4621 18.9135 15.5539 18.8748 15.6437 18.8477C15.8697 18.7796 16.0931 18.7019 16.3212 18.6422C16.5906 18.5717 16.8647 18.5243 17.1514 18.5557C17.1624 18.679 17.1772 18.7943 17.1823 18.9099C17.2202 19.7814 17.2822 20.6529 17.2865 21.5246C17.2924 22.7423 17.1677 23.9534 17.0081 25.1602C16.9789 25.3812 17.0706 25.4727 17.2956 25.4438C17.7576 25.3845 18.2201 25.3648 18.6842 25.4146C18.7909 25.4261 18.8973 25.4451 19.0043 25.4487C19.166 25.4541 19.2414 25.3751 19.2408 25.2134C19.2406 25.1662 19.2368 25.1188 19.2319 25.0718C19.209 24.854 19.1802 24.6366 19.1627 24.4183C19.106 23.7115 19.0487 23.0047 19.0002 22.2973C18.9333 21.3226 18.9204 20.3471 18.9887 19.3718C19.0075 19.103 19.0353 18.8348 19.0593 18.5621C19.1113 18.5584 19.1493 18.5531 19.1871 18.5535C19.9695 18.5628 20.7523 18.5605 21.5341 18.5868C22.0575 18.6045 22.58 18.6578 23.1019 18.7058C23.3323 18.7269 23.5595 18.78 23.7895 18.8076C23.9475 18.8265 24.0217 18.7565 24.035 18.5988C24.0386 18.5562 24.034 18.5129 24.0335 18.4699C24.0284 18.0618 24.0169 17.6537 24.0208 17.2456C24.0234 16.9626 23.9449 16.8855 23.6633 16.9062C23.1621 16.943 22.6606 16.9772 22.1586 17.0002C21.5102 17.0299 20.8615 17.0538 20.2127 17.0688C19.5078 17.0851 18.8024 17.1019 18.0976 17.0938C17.264 17.0841 16.4307 17.0466 15.5972 17.0245C15.3845 17.0188 15.3116 17.1008 15.3125 17.312C15.3143 17.7458 15.3111 18.1797 15.3156 18.6134C15.3163 18.6829 15.3459 18.752 15.3758 18.8369ZM12.4695 22.0597C12.7482 22.0597 13.0269 22.0597 13.325 22.0597C13.2667 22.3766 13.2119 22.6796 13.155 22.9822C13.1052 23.2475 13.2083 23.3513 13.4783 23.318C13.6528 23.2964 13.8294 23.2774 14.0047 23.2802C14.275 23.2844 14.5448 23.3106 14.815 23.3232C15.0671 23.3351 15.1585 23.2297 15.1324 22.9802C15.0806 22.4845 15.0217 21.9892 14.987 21.4922C14.903 20.2883 14.9374 19.0863 15.0773 17.8874C15.0992 17.6997 15.123 17.5117 15.133 17.3232C15.1419 17.155 15.067 17.0753 14.9002 17.0617C14.8283 17.0558 14.7548 17.0698 14.682 17.0738C13.2969 17.15 11.9151 17.1438 10.5426 16.9059C10.3173 16.8669 10.2008 16.9789 10.213 17.2104C10.2238 17.4164 10.2375 17.6227 10.2365 17.8288C10.2347 18.1726 10.2181 18.5164 10.2175 18.8602C10.2173 18.9357 10.2364 19.0454 10.2862 19.0771C10.332 19.1062 10.4379 19.0649 10.5055 19.031C10.6472 18.9599 10.7761 18.8622 10.9197 18.7958C11.0987 18.7129 11.2872 18.6506 11.4993 18.5687C11.242 19.7566 10.958 20.887 10.5499 21.983C10.4211 22.329 10.2846 22.6722 10.1599 23.0197C10.0867 23.2239 10.187 23.3391 10.4015 23.3141C10.4527 23.3082 10.5041 23.2983 10.5552 23.2992C11.01 23.3067 11.4649 23.3143 11.9196 23.3261C12.1453 23.3319 12.2244 23.2669 12.2475 23.045C12.2786 22.7458 12.3151 22.4471 12.3426 22.1476C12.3494 22.0732 12.377 22.0497 12.4695 22.0597ZM23.3863 19.0903C22.9197 19.0629 22.4511 18.9943 21.9869 19.0169C21.1162 19.0595 20.4563 19.4816 20.0384 20.2568C19.7531 20.786 19.6413 21.3619 19.6154 21.955C19.5851 22.6499 19.6276 23.3397 19.867 24.0011C20.1242 24.7118 20.5868 25.2215 21.327 25.451C21.7923 25.5953 22.2676 25.5892 22.745 25.5559C23.0532 25.5344 23.3608 25.4944 23.6692 25.4867C23.9418 25.4799 24.025 25.3879 24.0095 25.118C23.9768 24.548 23.9622 23.9769 23.9431 23.4062C23.9405 23.3275 23.9547 23.2482 23.9611 23.1693C23.8966 23.2001 23.8593 23.2443 23.8203 23.2871C23.6873 23.433 23.5605 23.5853 23.4192 23.7228C22.8999 24.2282 21.9069 24.1903 21.5656 23.295C21.4738 23.0543 21.425 22.7902 21.4 22.5326C21.3535 22.0526 21.3999 21.5786 21.6267 21.1402C21.9016 20.609 22.5465 20.3869 23.0681 20.6748C23.2916 20.7982 23.4739 20.9994 23.666 21.175C23.7609 21.2617 23.8356 21.3706 23.9389 21.4924C23.9446 21.4248 23.9497 21.3918 23.9499 21.3588C23.9524 20.9421 23.9481 20.5252 23.9585 20.1087C23.9647 19.8643 23.9985 19.6206 24.0113 19.3761C24.0215 19.1815 23.9287 19.0909 23.7334 19.089C23.626 19.088 23.5185 19.0903 23.3863 19.0903ZM9.04692 15.2853C8.99151 15.3629 8.93609 15.4404 8.88031 15.5185C9.18152 15.4979 9.47232 15.478 9.74359 15.4595C9.60961 15.1855 9.47603 14.9122 9.35456 14.6638C9.26297 14.8502 9.15994 15.0598 9.04692 15.2853Z" fill="#4026F4"/>
<path d="M0.663609 23.613C0.728581 23.6358 0.782267 23.6655 0.839654 23.6833C1.05591 23.7501 1.27149 23.8206 1.49101 23.8748C1.65423 23.9151 1.72283 23.8615 1.73089 23.6864C1.73952 23.4985 1.72502 23.3097 1.72287 23.1212C1.71999 22.8693 1.71148 22.617 1.72311 22.3656C1.72602 22.3027 1.78843 22.203 1.8385 22.1926C1.89156 22.1816 1.98262 22.2425 2.02178 22.2973C2.13084 22.4498 2.22161 22.6155 2.32694 22.7884C2.45721 23.0201 2.57188 23.2446 2.70602 23.4567C2.79633 23.5996 2.8892 23.5967 2.98145 23.4538C3.15788 23.1805 3.31882 22.8971 3.49469 22.6234C3.57492 22.4985 3.6681 22.3799 3.76885 22.2709C3.85242 22.1804 3.95454 22.2077 4.00284 22.3206C4.01779 22.3555 4.02811 22.3949 4.02971 22.4327C4.04239 22.7326 4.04902 23.0328 4.06472 23.3326C4.07299 23.4903 4.08862 23.6485 4.11555 23.8039C4.12584 23.8633 4.15408 23.9457 4.26342 23.914C4.31227 23.9036 4.35663 23.8994 4.39036 23.8783C4.53712 23.7865 4.68078 23.6897 4.82935 23.5975C4.83605 23.5992 4.83897 23.5981 4.84188 23.5969C4.83989 23.5928 4.83789 23.5886 4.8446 23.5771C4.85975 23.5657 4.8662 23.5617 4.87613 23.5623C4.88613 23.558 4.89265 23.549 4.90723 23.5321C4.92609 23.5136 4.93688 23.503 4.95501 23.4945C4.99094 23.4663 5.01955 23.4361 5.04668 23.4042C5.04518 23.4024 5.04863 23.4054 5.0577 23.4048C5.23932 23.2989 5.41187 23.1937 5.59446 23.0903C5.62485 23.0917 5.6452 23.0913 5.6706 23.0985C5.6943 23.1768 5.7448 23.2574 5.72617 23.3162C5.6398 23.5884 5.53274 23.8539 5.43611 24.1229C5.3745 24.2945 5.31818 24.4679 5.2565 24.6506C5.25553 24.6886 5.25754 24.7164 5.25817 24.7533C5.2977 24.7875 5.33937 24.835 5.37939 24.8336C5.50816 24.8293 5.63633 24.8069 5.77524 24.7932C5.8138 24.7918 5.84183 24.7889 5.8799 24.7886C5.95183 24.7751 6.01373 24.7588 6.08567 24.7435C6.11541 24.7411 6.13513 24.7377 6.16542 24.737C6.39214 24.7235 6.60814 24.7027 6.8246 24.6947C6.87032 24.693 6.94298 24.7277 6.95744 24.764C6.97231 24.8013 6.94069 24.8673 6.91234 24.9092C6.87103 24.9703 6.81446 25.021 6.76439 25.0762C6.76066 25.0797 6.75692 25.0833 6.74061 25.0878C6.5034 25.245 6.27854 25.4009 6.05428 25.5577C5.97359 25.6141 5.88809 25.6657 5.81585 25.7317C5.69993 25.8375 5.70451 25.965 5.82276 26.0605C5.92607 26.144 6.0343 26.2214 6.14135 26.3002C6.3894 26.4828 6.64134 26.6603 6.88353 26.8503C6.92871 26.8857 6.96989 26.9821 6.95307 27.0288C6.92105 27.1177 6.82445 27.1081 6.73992 27.0914C6.6416 27.0719 6.54244 27.0567 6.43474 27.0335C6.1289 26.932 5.83428 26.8283 5.53422 26.7439C5.32248 26.6844 5.25383 26.7494 5.2505 26.974C5.25012 26.9995 5.25445 27.0251 5.25659 27.0506C5.26394 27.2475 5.27228 27.4443 5.27836 27.6412C5.28404 27.8254 5.28778 28.0097 5.291 28.1939C5.29136 28.2147 5.2883 28.2393 5.27733 28.2559C5.23649 28.3174 5.19993 28.4137 5.14603 28.4256C5.09309 28.4372 4.9978 28.3774 4.9616 28.3223C4.84197 28.1403 4.74137 27.9459 4.63211 27.757C4.51244 27.5501 4.39975 27.3385 4.2676 27.1398C4.186 27.0171 4.09394 27.0199 4.01371 27.1417C3.86567 27.3663 3.73692 27.6037 3.58967 27.8289C3.4732 28.007 3.34923 28.1818 3.21273 28.3447C3.13503 28.4375 3.01869 28.4043 2.98645 28.2863C2.95515 28.1718 2.93636 28.0513 2.93129 27.9327C2.91993 27.6669 2.92155 27.4005 2.91535 27.1345C2.91417 27.0838 2.90135 27.0334 2.89485 26.9651C2.88771 26.8888 2.89604 26.8195 2.86678 26.7749C2.8391 26.7326 2.75208 26.6798 2.72539 26.6944C2.54668 26.7919 2.37712 26.9062 2.20459 27.015C2.01925 27.1438 1.83523 27.2746 1.6478 27.4003C1.58807 27.4404 1.52096 27.4709 1.45433 27.4989C1.30214 27.5628 1.21262 27.5043 1.23815 27.3387C1.26069 27.1924 1.31045 27.0479 1.36629 26.91C1.40032 26.8259 1.39627 26.7709 1.31972 26.7273C1.02422 26.5589 0.811416 26.314 0.661125 26.013C0.623849 25.9384 0.57924 25.9216 0.498044 25.9344C0.388709 25.9516 0.275526 25.9572 0.165212 25.9498C0.107908 25.9459 0.018957 25.9147 0.00581798 25.8753C-0.0115401 25.8233 0.0117027 25.7308 0.0521932 25.6914C0.174111 25.5726 0.312843 25.4711 0.459902 25.3551C0.699241 25.1905 0.927891 25.0392 1.14652 24.8745C1.27071 24.781 1.2769 24.683 1.15665 24.586C0.978111 24.4418 0.782534 24.3188 0.594205 24.1868C0.492193 24.1108 0.387984 24.0375 0.288859 23.9579C0.20954 23.8942 0.126704 23.8305 0.064258 23.7518C0.0283645 23.7066 0.00427196 23.6217 0.022972 23.5732C0.0373664 23.5359 0.130392 23.5032 0.182177 23.5109C0.34108 23.5344 0.496964 23.5783 0.663609 23.613Z" fill="#EDFE06"/>
<path d="M25.114 3.44423C25.4343 3.21625 25.755 2.98873 26.0748 2.75994C26.1408 2.71271 26.2078 2.66537 26.2667 2.60998C26.3873 2.4966 26.3953 2.44688 26.2696 2.33666C26.1028 2.19035 25.9193 2.06291 25.7427 1.92784C25.5997 1.81853 25.4526 1.71414 25.3146 1.59897C25.2568 1.55077 25.2176 1.48034 25.1654 1.41306C25.1599 1.28539 25.2356 1.23879 25.3365 1.26245C25.5433 1.31091 25.7462 1.37597 25.9506 1.43431C25.9915 1.44596 26.0321 1.45812 26.0818 1.47663C26.2496 1.5405 26.4062 1.60523 26.5677 1.65322C26.781 1.71655 26.8394 1.67007 26.86 1.44458C26.8617 1.25226 26.8626 1.05993 26.8653 0.867621C26.8682 0.64896 26.8709 0.430257 26.8781 0.211723C26.8795 0.170724 26.8967 0.127705 26.9159 0.0903366C26.9676 -0.0106604 27.051 -0.0335174 27.1179 0.0553155C27.2305 0.204817 27.3281 0.367219 27.418 0.531819C27.5352 0.746258 27.6386 0.968212 27.7483 1.18671C27.7598 1.20967 27.7729 1.23213 27.7877 1.25312C27.9119 1.42956 28.0002 1.43832 28.121 1.26255C28.286 1.02242 28.4327 0.769795 28.5923 0.525843C28.6673 0.411225 28.7452 0.295754 28.8395 0.19767C28.8854 0.14994 28.9757 0.115075 29.0386 0.124267C29.0793 0.130217 29.1317 0.224567 29.136 0.282508C29.1539 0.521901 29.1546 0.762547 29.1633 1.00267C29.1708 1.20817 29.1717 1.41446 29.192 1.61875C29.2089 1.78748 29.2986 1.83161 29.4496 1.7438C29.642 1.63184 29.8237 1.50149 30.0114 1.38112C30.1882 1.26768 30.3629 1.14987 30.5468 1.04904C30.606 1.01657 30.7082 1.00379 30.7594 1.03444C30.7989 1.05811 30.8166 1.17279 30.797 1.23117C30.7165 1.47027 30.6197 1.70397 30.5256 1.93834C30.4585 2.10549 30.3831 2.26933 30.317 2.43684C30.2458 2.61723 30.2991 2.70837 30.4945 2.69906C30.7382 2.68745 30.9801 2.64307 31.2234 2.61955C31.4276 2.5998 31.6329 2.57769 31.8376 2.57906C32.0018 2.58016 32.0519 2.68727 31.9398 2.80699C31.8214 2.93335 31.6757 3.03661 31.5329 3.13701C31.3121 3.29218 31.0806 3.43213 30.8594 3.58662C30.7061 3.69361 30.6967 3.78636 30.8432 3.90608C31.1021 4.11752 31.3751 4.31154 31.6398 4.51585C31.7178 4.57601 31.7972 4.63881 31.8582 4.71467C31.8966 4.76229 31.9271 4.84301 31.9132 4.89647C31.9039 4.93258 31.8047 4.97648 31.7568 4.96609C31.5613 4.92376 31.3684 4.86697 31.1776 4.80582C30.9612 4.73645 30.7494 4.6524 30.5331 4.58275C30.3227 4.51501 30.2325 4.5798 30.23 4.80481C30.2261 5.16157 30.2337 5.51844 30.2314 5.87523C30.2309 5.9511 30.2211 6.03147 30.1943 6.10165C30.1421 6.2385 30.0275 6.25996 29.9386 6.1435C29.8509 6.02867 29.7828 5.89809 29.7127 5.77086C29.6631 5.68107 29.6244 5.58532 29.5724 5.48717C29.4662 5.29692 29.3779 5.10591 29.2676 4.92848C29.1847 4.79505 29.1015 4.7927 29.0042 4.9219C28.8704 5.09966 28.7582 5.29348 28.6328 5.47776C28.5028 5.66875 28.3792 5.86568 28.2321 6.04283C28.1193 6.17867 27.9846 6.13689 27.9632 5.96268C27.9382 5.75903 27.94 5.55193 27.9332 5.34622C27.9251 5.10161 27.9276 4.85639 27.9113 4.61238C27.8997 4.43828 27.8207 4.40624 27.6445 4.4971C27.4776 4.5973 27.3255 4.69133 27.1729 4.78466C26.9434 4.92505 26.7188 5.07476 26.4818 5.20118C26.351 5.27094 26.2469 5.17778 26.2843 5.03302C26.3237 4.88016 26.3756 4.72941 26.4351 4.58305C26.548 4.30529 26.6757 4.03352 26.7862 3.75485C26.8414 3.6156 26.7841 3.53434 26.6351 3.53179C26.4986 3.52944 26.3614 3.54433 26.2252 3.55818C25.9142 3.58979 25.6044 3.63547 25.2928 3.65535C25.1262 3.66598 25.0914 3.60683 25.114 3.44423Z" fill="#EDFE06"/>
<path d="M0.593376 24.1975C0.782534 24.3188 0.978112 24.4418 1.15666 24.5859C1.2769 24.683 1.27071 24.781 1.14652 24.8745C0.927891 25.0391 0.699242 25.1904 0.465576 25.3489C0.492842 25.0287 0.528988 24.707 0.566089 24.3854C0.572929 24.3261 0.583628 24.2673 0.593376 24.1975Z" fill="#442BE5"/>
<path d="M5.26851 27.0514C5.25458 27.0249 5.25025 26.9994 5.25063 26.9739C5.25397 26.7492 5.32261 26.6843 5.53436 26.7438C5.83442 26.8281 6.12903 26.9319 6.43074 27.0363C6.43356 27.0519 6.43101 27.0583 6.42786 27.0644C6.04534 27.0604 5.66281 27.0564 5.26851 27.0514Z" fill="#452DDC"/>
<path d="M6.43809 27.0664C6.43088 27.0582 6.43343 27.0519 6.43951 27.0423C6.54245 27.0565 6.6416 27.0717 6.73993 27.0912C6.82446 27.1079 6.92105 27.1175 6.95308 27.0286C6.9699 26.9819 6.92872 26.8855 6.88353 26.8501C6.64135 26.6601 6.38941 26.4826 6.14136 26.3C6.03431 26.2212 5.92608 26.1438 5.82276 26.0603C5.70452 25.9648 5.69994 25.8373 5.81586 25.7315C5.8881 25.6656 5.9736 25.614 6.05428 25.5575C6.27855 25.4008 6.50341 25.2448 6.7347 25.0927C6.62351 25.2063 6.50752 25.3179 6.38666 25.424C6.3493 25.4568 6.30122 25.4875 6.25367 25.4969C6.06935 25.5329 5.9488 25.6634 5.81757 25.7782C5.73371 25.8515 5.72902 25.9341 5.81753 26.0058C5.97391 26.1324 6.13322 26.2556 6.29376 26.3769C6.50543 26.537 6.71897 26.6946 6.93324 26.8511C6.95432 26.8665 6.98606 26.8673 7.02331 26.8722C7.05503 27.0877 7.00293 27.1516 6.78172 27.1398C6.66968 27.1338 6.55948 27.0933 6.43809 27.0664Z" fill="#E6E3D4"/>
<path d="M2.2146 27.0149C2.37712 26.9062 2.54668 26.7919 2.72539 26.6944C2.75208 26.6798 2.8391 26.7326 2.86678 26.7749C2.89604 26.8195 2.88771 26.8888 2.89075 26.9551C2.66533 26.9802 2.44497 26.9975 2.2146 27.0149Z" fill="#4B33D3"/>
<path d="M26.8502 1.44531C26.8394 1.67007 26.7809 1.71655 26.5677 1.65322C26.4061 1.60523 26.2496 1.5405 26.0941 1.47843C26.3451 1.46445 26.5927 1.45525 26.8502 1.44531Z" fill="#5039CD"/>
<path d="M4.25399 23.9124C4.15403 23.9456 4.12579 23.8631 4.1155 23.8037C4.08857 23.6483 4.07294 23.4901 4.06467 23.3324C4.04897 23.0326 4.04234 22.7324 4.02966 22.4325C4.02806 22.3947 4.01774 22.3553 4.0028 22.3204C3.9545 22.2075 3.85237 22.1802 3.7688 22.2707C3.66805 22.3797 3.57487 22.4983 3.49464 22.6232C3.31877 22.8969 3.15784 23.1803 2.9814 23.4536C2.88916 23.5966 2.79628 23.5994 2.70597 23.4566C2.57183 23.2444 2.45716 23.0199 2.33529 22.7912C2.35688 22.3051 2.4045 21.8278 2.39175 21.3521C2.37093 20.5751 2.32849 19.7977 2.26125 19.0235C2.21266 18.4639 2.10934 17.9091 2.02985 17.3523C1.99785 17.1281 2.09271 17.0203 2.31825 17.0496C3.03109 17.1424 3.7418 17.1087 4.45277 17.0305C4.75265 16.9976 4.82272 17.0618 4.88079 17.3513C5.09847 18.4368 5.32066 19.5213 5.54596 20.6051C5.6507 21.109 5.76646 21.6106 5.88297 22.1393C5.98186 21.6866 6.07562 21.2601 6.16809 20.8334C6.39167 19.8016 6.616 18.7699 6.83639 17.7374C6.86857 17.5866 6.88098 17.4316 6.90228 17.2786C6.92613 17.1072 7.03277 17.0241 7.20455 17.0327C7.71482 17.0584 8.22507 17.09 8.73571 17.1004C8.96182 17.1051 9.18994 17.0725 9.41518 17.0423C9.64726 17.0111 9.76675 17.1194 9.72519 17.3463C9.42594 18.9803 9.31135 20.6283 9.362 22.2874C9.36914 22.521 9.40631 22.7606 9.47355 22.9842C9.66142 23.6091 10.0983 23.9367 10.7442 24.0256C11.5561 24.1373 12.3662 24.1085 13.1754 24.0302C13.7219 23.9774 14.265 23.8893 14.8092 23.8137C15.0417 23.7815 15.1149 23.8443 15.1103 24.0826C15.1011 24.5509 15.0909 25.0191 15.0863 25.4875C15.0851 25.6116 15.1062 25.7359 15.1104 25.8603C15.1172 26.0624 15.0375 26.1447 14.8322 26.1397C14.3853 26.1288 13.9385 26.1094 13.4916 26.0995C12.834 26.085 12.1759 26.0876 11.5189 26.0603C11.0391 26.0404 10.5482 26.0388 10.0841 25.9332C8.92457 25.6692 8.15866 24.9592 7.85869 23.7844C7.72362 23.2554 7.69534 22.7157 7.68516 22.1735C7.67474 21.6192 7.66439 21.0648 7.65087 20.5105C7.64815 20.3991 7.63129 20.2881 7.60673 20.174C7.23606 21.6215 6.91297 23.0796 6.60739 24.558C6.45097 24.622 6.30474 24.6719 6.15868 24.7224C6.15631 24.7232 6.15605 24.7301 6.15481 24.7342C6.13509 24.7376 6.11536 24.7409 6.07904 24.7364C6.00231 24.7201 5.94219 24.7118 5.87815 24.703C5.87477 24.7366 5.8723 24.7612 5.86982 24.7857C5.84178 24.7887 5.81375 24.7917 5.76758 24.7861C5.70355 24.775 5.65767 24.7722 5.61177 24.77C5.49412 24.7645 5.37188 24.8213 5.25951 24.744C5.25749 24.7162 5.25548 24.6884 5.26538 24.6488C5.29214 24.6228 5.31353 24.6112 5.3208 24.5938C5.37232 24.4702 5.41654 24.3433 5.47202 24.2216C5.51048 24.1372 5.59526 24.0624 5.60323 23.978C5.62335 23.7649 5.71942 23.5807 5.78172 23.3837C5.80009 23.3256 5.80223 23.2519 5.78249 23.1957C5.76728 23.1523 5.7062 23.1251 5.66551 23.0907C5.64516 23.0911 5.6248 23.0915 5.5889 23.0834C5.53886 23.069 5.49368 23.0462 5.47167 23.0601C5.35741 23.1323 5.24701 23.2111 5.13979 23.2935C5.10269 23.322 5.07861 23.3675 5.04858 23.4052C5.04858 23.4052 5.04513 23.4022 5.03889 23.4021C4.98787 23.3573 4.96479 23.3895 4.94011 23.4175C4.80046 22.7793 4.67186 22.1489 4.52475 21.5229C4.42016 21.0778 4.29064 20.6386 4.17224 20.1967C4.15845 20.1983 4.14466 20.1999 4.13087 20.2014C4.11675 20.4531 4.09577 20.7046 4.08973 20.9564C4.06598 21.9459 4.13912 22.9304 4.25399 23.9124Z" fill="#F6F7F0"/>
<path d="M8.41241 3.43811C9.53779 3.65748 10.3234 4.27784 10.6609 5.37196C11.0715 6.70317 11.1267 8.05334 10.6692 9.38868C10.3387 10.3534 9.72768 11.0883 8.77786 11.5087C8.29874 11.7207 7.79163 11.7982 7.27076 11.7989C7.21607 11.7989 7.16138 11.7989 7.08798 11.7989C7.12642 12.1007 7.15733 12.3858 7.20008 12.669C7.25968 13.0638 7.33348 13.4566 7.38912 13.8519C7.4034 13.9533 7.39307 14.0691 7.35656 14.1638C7.31696 14.2666 7.20591 14.3027 7.09625 14.2942C6.88673 14.278 6.67808 14.2505 6.46858 14.2341C5.86662 14.1868 5.26569 14.2016 4.66672 14.2774C4.36646 14.3154 4.23803 14.1832 4.28743 13.8853C4.54855 12.3105 4.73158 10.7282 4.74504 9.1295C4.75388 8.07928 4.70869 7.03146 4.58317 5.98887C4.49388 5.2472 4.38148 4.5083 4.27709 3.76849C4.24451 3.53761 4.37757 3.37916 4.60725 3.4089C5.26102 3.49355 5.91207 3.4394 6.56351 3.38642C7.17816 3.33644 7.79154 3.32559 8.41241 3.43811ZM8.7483 6.60298C8.74361 6.57328 8.73941 6.54351 8.73417 6.51391C8.67033 6.15297 8.5936 5.79604 8.36368 5.49628C8.14856 5.21583 7.806 5.12351 7.54647 5.29984C7.43176 5.37778 7.32046 5.50146 7.27268 5.62879C7.1711 5.89955 7.07338 6.18212 7.04262 6.46724C6.93236 7.48927 6.90045 8.51605 6.9343 9.54412C6.9382 9.66249 6.94876 9.78064 6.95656 9.90415C7.07769 9.90415 7.18466 9.90417 7.29164 9.90414C7.67172 9.90403 7.99865 9.77395 8.25925 9.49528C8.59751 9.13356 8.72955 8.68307 8.78649 8.2068C8.8496 7.67893 8.81121 7.15157 8.7483 6.60298Z" fill="#F6F7F1"/>
<path d="M25.1036 3.43948C25.0913 3.60673 25.126 3.66588 25.2927 3.65525C25.6043 3.63537 25.9141 3.58968 26.225 3.55808C26.3613 3.54422 26.4985 3.52934 26.635 3.53168C26.784 3.53424 26.8413 3.6155 26.7861 3.75475C26.6756 4.03342 26.5478 4.30519 26.4349 4.58295C26.3755 4.72931 26.3236 4.88006 26.2842 5.03292C26.2468 5.17767 26.3509 5.27083 26.4817 5.20108C26.7187 5.07466 26.9433 4.92495 27.1728 4.78455C27.3254 4.69123 27.4775 4.5972 27.6394 4.50454C27.5782 5.09811 27.495 5.68948 27.4406 6.2835C27.3917 6.8182 27.3694 7.35558 27.3446 7.89221C27.3218 8.38606 27.3125 8.88052 27.2952 9.37465C27.2643 10.2592 26.8256 10.8811 26.0502 11.2748C25.8487 11.3771 25.6304 11.4477 25.4163 11.5228C25.3499 11.5461 25.3242 11.5713 25.3357 11.6394C25.4583 12.367 25.58 13.0948 25.7023 13.8225C25.7072 13.852 25.7152 13.8811 25.721 13.9106C25.7732 14.177 25.6456 14.3136 25.3732 14.2842C25.2194 14.2676 25.0658 14.2492 24.9116 14.2372C24.2754 14.1879 23.6404 14.1998 23.0068 14.2777C22.9812 14.2808 22.9557 14.2855 22.9301 14.2876C22.7044 14.3066 22.5895 14.1925 22.6331 13.971C22.6944 13.6597 22.7813 13.3532 22.8385 13.0412C22.9291 12.548 23.0041 12.0518 23.0868 11.5501C22.9473 11.502 22.8337 11.4675 22.7237 11.4241C22.052 11.1589 21.5165 10.742 21.2749 10.0364C21.19 9.78836 21.1438 9.51901 21.1286 9.25655C21.0719 8.28271 21.0625 7.3055 20.9832 6.33381C20.9166 5.51749 20.7774 4.70709 20.6703 3.89409C20.6669 3.86858 20.6608 3.8434 20.6582 3.81784C20.6273 3.51637 20.7541 3.39894 21.0573 3.42669C21.412 3.45916 21.7681 3.50051 22.1232 3.49737C22.5429 3.49365 22.9633 3.45656 23.3814 3.41467C23.6688 3.38589 23.8203 3.52197 23.7754 3.80797C23.7156 4.18959 23.6415 4.56948 23.5964 4.95281C23.5119 5.66933 23.4278 6.38659 23.3742 7.10583C23.3312 7.68391 23.3254 8.26528 23.3189 8.84538C23.3153 9.1734 23.3636 9.49767 23.5297 9.79104C23.7713 10.2177 24.378 10.325 24.7438 9.99956C24.9615 9.8058 25.0512 9.5374 25.0677 9.26101C25.0963 8.7815 25.1 8.29999 25.0994 7.81934C25.0977 6.49182 24.9685 5.17732 24.681 3.87953C24.6 3.51391 24.7197 3.39046 25.1036 3.43948Z" fill="#F6F7F0"/>
<path d="M15.4594 12.2894C16.5685 12.2808 17.6601 12.1992 18.7434 12.0204C19.3279 11.9238 19.9093 11.8107 20.4681 11.6067C20.6291 11.5479 20.7842 11.4731 20.9452 11.4141C21.1305 11.3461 21.2061 11.3998 21.1996 11.5964C21.186 12.0086 21.1534 12.4206 21.1534 12.8326C21.1534 13.1801 21.184 13.528 21.2093 13.8751C21.2334 14.2065 21.0995 14.3328 20.7726 14.3101C20.3227 14.2789 19.8715 14.2592 19.4205 14.2495C18.2256 14.2236 17.0306 14.2002 15.8356 14.1866C15.0406 14.1775 14.2451 14.1757 13.4503 14.1922C12.9181 14.2033 12.3866 14.2525 11.8547 14.2843C11.7733 14.2891 11.6916 14.296 11.6101 14.2946C11.3865 14.2908 11.2895 14.1761 11.3228 13.9546C11.356 13.7339 11.4004 13.5147 11.4274 13.2933C11.5232 12.509 11.6245 11.7252 11.7032 10.9392C11.7966 10.0057 11.8283 9.06753 11.776 8.13114C11.7241 7.20081 11.6436 6.27155 11.5524 5.34411C11.5011 4.82352 11.4022 4.30764 11.3259 3.78948C11.2873 3.52764 11.4284 3.40364 11.7126 3.42673C12.1104 3.45905 12.5093 3.49994 12.9076 3.49811C13.2927 3.49634 13.6784 3.453 14.0623 3.41289C14.3354 3.38436 14.4869 3.52134 14.4471 3.79253C14.3467 4.47634 14.2304 5.15818 14.1478 5.84409C14.0785 6.4195 14.04 6.99904 14.0015 7.57765C13.9153 8.87305 14.0077 10.1636 14.123 11.4531C14.1467 11.7176 14.1669 11.9825 14.1903 12.2663C14.6154 12.2741 15.0316 12.2819 15.4594 12.2894Z" fill="#F6F7F1"/>
<path d="M26.7543 24.7363C26.7805 24.8825 26.8057 25.0176 26.8292 25.1529C26.8664 25.3674 26.7559 25.4765 26.5407 25.4616C26.13 25.4331 25.7187 25.4068 25.3072 25.397C25.111 25.3923 24.9138 25.4268 24.7173 25.4452C24.4777 25.4676 24.3885 25.378 24.4217 25.1402C24.5033 24.5577 24.5976 23.9768 24.6668 23.3928C24.7751 22.4781 24.8104 21.5592 24.7769 20.6381C24.7449 19.7569 24.6643 18.8802 24.5299 18.0087C24.4959 17.7881 24.4534 17.5688 24.4217 17.3479C24.3892 17.1213 24.4854 17.0194 24.7127 17.0495C25.2179 17.1162 25.7239 17.1212 26.2309 17.0829C26.3376 17.0749 26.4435 17.0546 26.5496 17.0385C26.7431 17.009 26.8596 17.1178 26.8324 17.3119C26.7594 17.8349 26.6676 18.3558 26.6116 18.8806C26.5527 19.4313 26.5266 19.9856 26.4867 20.5384C26.4852 20.5588 26.4893 20.5797 26.4913 20.6072C26.9459 20.6072 27.3953 20.6072 27.8642 20.6072C27.8512 20.3492 27.8503 20.0924 27.823 19.8384C27.7452 19.1126 27.6574 18.3878 27.5717 17.6629C27.5586 17.5522 27.5326 17.4431 27.5184 17.3324C27.4908 17.1165 27.5774 17.033 27.7962 17.0461C28.1732 17.0686 28.5505 17.0967 28.9278 17.1006C29.1585 17.103 29.3906 17.0719 29.6203 17.0423C29.8419 17.0137 29.9621 17.1206 29.9306 17.3402C29.8472 17.9224 29.7497 18.5029 29.6817 19.0868C29.5691 20.0531 29.5161 21.0246 29.5833 21.9959C29.6414 22.8353 29.7362 23.6722 29.822 24.5094C29.8438 24.7224 29.8947 24.9324 29.929 25.1442C29.9643 25.362 29.8446 25.492 29.6289 25.459C29.0212 25.3661 28.414 25.3663 27.8051 25.445C27.5743 25.4748 27.481 25.3771 27.5194 25.1495C27.6768 24.217 27.7967 23.28 27.8491 22.3353C27.8562 22.2076 27.8501 22.0793 27.8501 21.9431C27.401 21.9431 26.952 21.9431 26.4863 21.9431C26.5098 22.8804 26.6142 23.8043 26.7543 24.7363Z" fill="#F6F7F1"/>
<path d="M21.0577 10.6946C20.9492 10.7168 20.8492 10.7464 20.749 10.7473C20.1823 10.7525 19.6156 10.7504 19.0489 10.7519C18.9889 10.7521 18.9289 10.7621 18.8688 10.7634C18.6696 10.7678 18.5469 10.6657 18.5395 10.4663C18.5308 10.2303 18.5411 9.99367 18.5413 9.75734C18.5413 9.63269 18.5415 9.50772 18.5322 9.38361C18.5299 9.35363 18.4904 9.30189 18.4676 9.30168C18.0938 9.29827 17.72 9.30144 17.3461 9.30376C17.3388 9.30381 17.3315 9.3114 17.3062 9.32545C17.3062 9.39167 17.306 9.46786 17.3062 9.54406C17.3075 10.0298 17.3077 10.5156 17.3105 11.0014C17.3124 11.3161 17.1835 11.4226 16.8702 11.3919C16.2746 11.3335 15.6778 11.3277 15.0816 11.3916C14.8427 11.4172 14.6238 11.3229 14.6942 10.9971C14.8482 10.2841 14.9955 9.5697 15.1468 8.85612C15.4159 7.58721 15.6527 6.31283 15.7727 5.01993C15.8112 4.60509 15.8278 4.18817 15.8518 3.77205C15.868 3.49124 15.9727 3.39059 16.2588 3.39755C16.7486 3.40947 17.2383 3.4354 17.728 3.43484C18.3253 3.43417 18.9225 3.41216 19.5197 3.39957C19.567 3.39858 19.6143 3.39748 19.6615 3.39916C19.872 3.40664 19.9786 3.50606 19.9902 3.71513C20.0076 4.02834 20.0184 4.34191 20.0346 4.65519C20.0916 5.75623 20.2629 6.84117 20.5179 7.91213C20.7105 8.7214 20.9255 9.52533 21.1306 10.3316C21.1633 10.4605 21.1815 10.5868 21.0577 10.6946ZM17.4857 7.26088C17.4462 7.53954 17.4068 7.81821 17.3662 8.10467C17.7477 8.10467 18.1022 8.10467 18.4711 8.10467C18.3728 6.99083 18.1052 5.9149 17.9475 4.82146C17.9354 4.82066 17.9232 4.81985 17.9111 4.81904C17.7703 5.62558 17.6294 6.43211 17.4857 7.26088Z" fill="#F6F7F1"/>
<path d="M15.3687 18.8293C15.3457 18.7522 15.3161 18.6831 15.3154 18.6136C15.3109 18.1799 15.3141 17.746 15.3123 17.3122C15.3114 17.101 15.3843 17.0191 15.597 17.0247C16.4305 17.0468 17.2638 17.0844 18.0974 17.094C18.8022 17.1021 19.5076 17.0853 20.2125 17.069C20.8613 17.054 21.51 17.0301 22.1584 17.0004C22.6604 16.9774 23.1619 16.9432 23.6631 16.9064C23.9447 16.8857 24.0232 16.9628 24.0206 17.2458C24.0167 17.6539 24.0282 18.062 24.0332 18.4701C24.0338 18.5131 24.0384 18.5564 24.0348 18.599C24.0215 18.7567 23.9473 18.8267 23.7893 18.8078C23.5593 18.7802 23.3321 18.7271 23.1017 18.706C22.5798 18.6581 22.0573 18.6047 21.5339 18.587C20.7521 18.5607 19.9693 18.563 19.1869 18.5537C19.149 18.5533 19.1111 18.5586 19.0591 18.5623C19.035 18.835 19.0073 19.1032 18.9885 19.372C18.9201 20.3473 18.9331 21.3228 19 22.2975C19.0485 23.0049 19.1058 23.7117 19.1625 24.4185C19.18 24.6368 19.2088 24.8542 19.2317 25.072C19.2366 25.119 19.2404 25.1664 19.2405 25.2136C19.2412 25.3753 19.1657 25.4543 19.0041 25.4489C18.8971 25.4454 18.7907 25.4263 18.684 25.4148C18.2199 25.365 17.7574 25.3847 17.2954 25.444C17.0703 25.4729 16.9787 25.3814 17.0079 25.1604C17.1675 23.9536 17.2921 22.7425 17.2862 21.5249C17.282 20.6531 17.22 19.7816 17.1821 18.9101C17.177 18.7945 17.1622 18.6792 17.1512 18.5559C16.8645 18.5245 16.5904 18.5719 16.321 18.6424C16.0929 18.7021 15.8695 18.7798 15.6435 18.8479C15.5537 18.875 15.4619 18.9138 15.3687 18.8293Z" fill="#F6F7F1"/>
<path d="M12.4572 22.06C12.377 22.0499 12.3494 22.0734 12.3426 22.1478C12.3151 22.4473 12.2786 22.746 12.2474 23.0451C12.2243 23.267 12.1453 23.3321 11.9195 23.3263C11.4648 23.3145 11.01 23.3069 10.5552 23.2993C10.504 23.2985 10.4526 23.3084 10.4015 23.3143C10.1869 23.3393 10.0866 23.224 10.1599 23.0199C10.2846 22.6724 10.4211 22.3292 10.5499 21.9831C10.9579 20.8872 11.242 19.7568 11.4992 18.5689C11.2872 18.6508 11.0987 18.7131 10.9197 18.796C10.7761 18.8624 10.6472 18.9601 10.5054 19.0312C10.4379 19.0651 10.332 19.1064 10.2862 19.0773C10.2364 19.0455 10.2173 18.9359 10.2174 18.8603C10.218 18.5166 10.2347 18.1728 10.2364 17.829C10.2375 17.6229 10.2238 17.4166 10.2129 17.2106C10.2007 16.9791 10.3173 16.867 10.5425 16.9061C11.9151 17.144 13.2968 17.1502 14.682 17.0739C14.7548 17.0699 14.8282 17.056 14.9001 17.0619C15.067 17.0755 15.1419 17.1552 15.1329 17.3234C15.1229 17.5119 15.0991 17.6999 15.0772 17.8876C14.9374 19.0865 14.903 20.2885 14.987 21.4924C15.0217 21.9894 15.0805 22.4847 15.1324 22.9804C15.1585 23.2299 15.0671 23.3353 14.8149 23.3234C14.5447 23.3107 14.2749 23.2846 14.0047 23.2804C13.8294 23.2776 13.6528 23.2966 13.4783 23.3181C13.2083 23.3515 13.1051 23.2477 13.155 22.9824C13.2118 22.6798 13.2666 22.3768 13.3249 22.0599C13.0269 22.0599 12.7482 22.0599 12.4572 22.06ZM13.4221 20.9494C13.464 19.9568 13.422 18.9687 13.2757 17.986C13.2649 17.9842 13.2542 17.9824 13.2434 17.9806C12.9893 18.9883 12.7351 19.996 12.476 21.0234C12.7934 21.0234 13.0759 21.0244 13.3584 21.0212C13.3789 21.0209 13.399 20.9895 13.4221 20.9494Z" fill="#F6F7F1"/>
<path d="M23.3986 19.0908C23.5184 19.0904 23.6259 19.0881 23.7334 19.0892C23.9287 19.0911 24.0214 19.1817 24.0113 19.3763C23.9985 19.6208 23.9646 19.8644 23.9585 20.1089C23.9481 20.5254 23.9524 20.9422 23.9498 21.3589C23.9496 21.3919 23.9446 21.4249 23.9388 21.4926C23.8355 21.3708 23.7609 21.2619 23.666 21.1751C23.4739 20.9995 23.2916 20.7983 23.0681 20.675C22.5465 20.3871 21.9015 20.6091 21.6267 21.1403C21.3999 21.5787 21.3534 22.0527 21.4 22.5328C21.425 22.7904 21.4738 23.0545 21.5655 23.2951C21.9068 24.1905 22.8998 24.2283 23.4192 23.7229C23.5604 23.5855 23.6873 23.4332 23.8203 23.2872C23.8593 23.2445 23.8966 23.2003 23.9611 23.1694C23.9547 23.2484 23.9404 23.3276 23.9431 23.4063C23.9621 23.9771 23.9767 24.5482 24.0094 25.1182C24.0249 25.388 23.9418 25.48 23.6692 25.4869C23.3607 25.4946 23.0532 25.5345 22.745 25.556C22.2675 25.5894 21.7923 25.5955 21.327 25.4512C20.5868 25.2217 20.1241 24.7119 19.867 24.0012C19.6276 23.3398 19.585 22.6501 19.6154 21.9551C19.6413 21.362 19.753 20.7862 20.0384 20.2569C20.4563 19.4817 21.1162 19.0596 21.9868 19.0171C22.451 18.9944 22.9197 19.063 23.3986 19.0908Z" fill="#F6F7F1"/>
<path d="M9.05185 15.2775C9.15987 15.0599 9.2629 14.8503 9.3545 14.6639C9.47597 14.9124 9.60955 15.1856 9.74352 15.4596C9.47226 15.4782 9.18146 15.498 8.88025 15.5186C8.93603 15.4406 8.99144 15.363 9.05185 15.2775Z" fill="#F7F4FD"/>
<path d="M6.16543 24.737C6.15611 24.7303 6.15637 24.7233 6.15874 24.7225C6.3048 24.6721 6.45103 24.6221 6.60405 24.5685C6.60925 24.6243 6.62508 24.6652 6.69778 24.6556C6.727 24.6518 6.76026 24.6487 6.7866 24.6587C6.85781 24.6857 6.96829 24.7059 6.98464 24.755C7.00283 24.8096 6.94183 24.8979 6.90098 24.9624C6.87265 25.0072 6.82009 25.0366 6.77138 25.0745C6.81447 25.021 6.87105 24.9703 6.91235 24.9092C6.9407 24.8673 6.97232 24.8013 6.95745 24.764C6.94299 24.7277 6.87034 24.6929 6.82462 24.6946C6.60815 24.7027 6.39215 24.7234 6.16543 24.737Z" fill="#E6E3D4"/>
<path d="M27.238 15.5291C27.2296 15.538 27.2177 15.5425 27.2058 15.5471C27.2095 15.5393 27.2132 15.5315 27.2222 15.5201C27.2275 15.5164 27.2345 15.5248 27.238 15.5291Z" fill="white"/>
<path d="M4.26343 23.9139C4.13917 22.9304 4.06604 21.946 4.08978 20.9565C4.09582 20.7046 4.1168 20.4531 4.13092 20.2015C4.14471 20.1999 4.1585 20.1984 4.17229 20.1968C4.29069 20.6386 4.42021 21.0779 4.52481 21.523C4.67191 22.149 4.80051 22.7794 4.93873 23.4258C4.94285 23.46 4.94527 23.4762 4.94768 23.4924C4.93689 23.5029 4.92609 23.5135 4.9038 23.5306C4.88576 23.544 4.8792 23.5508 4.87265 23.5576C4.8662 23.5616 4.85975 23.5656 4.84229 23.5766C4.82521 23.5861 4.8233 23.5897 4.82557 23.5946C4.68079 23.6896 4.53712 23.7863 4.39036 23.8782C4.35663 23.8993 4.31228 23.9034 4.26343 23.9139Z" fill="#4229EE"/>
<path d="M5.6705 23.0985C5.70615 23.1252 5.76723 23.1525 5.78244 23.1958C5.80218 23.2521 5.80004 23.3258 5.78167 23.3838C5.71937 23.5808 5.6233 23.7651 5.60318 23.9781C5.59521 24.0625 5.51043 24.1374 5.47197 24.2218C5.41649 24.3435 5.37227 24.4703 5.32075 24.5939C5.31348 24.6114 5.29209 24.6229 5.26831 24.6388C5.31808 24.4679 5.3744 24.2944 5.43601 24.1229C5.53264 23.8539 5.6397 23.5883 5.72607 23.3161C5.7447 23.2574 5.6942 23.1768 5.6705 23.0985Z" fill="#E6E3D4"/>
<path d="M5.05762 23.4046C5.07857 23.3676 5.10265 23.3221 5.13976 23.2936C5.24697 23.2112 5.35738 23.1323 5.47163 23.0601C5.49364 23.0462 5.53883 23.069 5.57883 23.0816C5.41179 23.1936 5.23924 23.2988 5.05762 23.4046Z" fill="#E6E3D4"/>
<path d="M5.25818 24.7532C5.37193 24.8214 5.49417 24.7645 5.61182 24.7701C5.65773 24.7723 5.7036 24.7751 5.75711 24.7845C5.63633 24.8069 5.50817 24.8292 5.3794 24.8335C5.33938 24.8349 5.29771 24.7874 5.25818 24.7532Z" fill="#E6E3D4"/>
<path d="M5.87995 24.7885C5.8724 24.7612 5.87488 24.7366 5.87826 24.703C5.9423 24.7118 6.00242 24.7201 6.06912 24.7354C6.01379 24.7586 5.95188 24.7749 5.87995 24.7885Z" fill="#E6E3D4"/>
<path d="M4.95491 23.4943C4.94517 23.4761 4.94275 23.4599 4.94177 23.4354C4.96475 23.3895 4.98782 23.3573 5.04034 23.4038C5.01946 23.4359 4.99085 23.4661 4.95491 23.4943Z" fill="#E6E3D4"/>
<path d="M4.87622 23.5622C4.87929 23.5508 4.88584 23.544 4.89582 23.5386C4.89273 23.5489 4.88622 23.5579 4.87622 23.5622Z" fill="#E6E3D4"/>
<path d="M4.82935 23.5975C4.82329 23.5898 4.8252 23.5862 4.83358 23.5841C4.83788 23.5886 4.83988 23.5927 4.84187 23.5969C4.83896 23.598 4.83604 23.5992 4.82935 23.5975Z" fill="#E6E3D4"/>
<path d="M8.75061 6.61444C8.81128 7.15181 8.84967 7.67917 8.78656 8.20705C8.72961 8.68331 8.59758 9.1338 8.25932 9.49552C7.99872 9.7742 7.67179 9.90428 7.29171 9.90439C7.18473 9.90442 7.07775 9.90439 6.95663 9.90439C6.94883 9.78089 6.93827 9.66274 6.93437 9.54437C6.90052 8.51629 6.93243 7.48951 7.04269 6.46748C7.07345 6.18236 7.17117 5.8998 7.27275 5.62904C7.32053 5.50171 7.43183 5.37803 7.54654 5.30009C7.80607 5.12376 8.14863 5.21607 8.36375 5.49653C8.59367 5.79628 8.6704 6.15321 8.73424 6.51416C8.73948 6.54375 8.74368 6.57353 8.75061 6.61444Z" fill="#4026F4"/>
<path d="M17.4872 7.24993C17.6295 6.43228 17.7703 5.62575 17.9112 4.81921C17.9233 4.82002 17.9354 4.82083 17.9475 4.82163C18.1052 5.91507 18.3729 6.991 18.4711 8.10484C18.1022 8.10484 17.7477 8.10484 17.3662 8.10484C17.4068 7.81838 17.4463 7.53971 17.4872 7.24993Z" fill="#432AF1"/>
<path d="M13.4207 20.9609C13.399 20.9894 13.3788 21.0209 13.3583 21.0211C13.0759 21.0244 12.7934 21.0233 12.476 21.0233C12.7351 19.9959 12.9892 18.9883 13.2434 17.9806C13.2541 17.9824 13.2649 17.9842 13.2756 17.986C13.4219 18.9687 13.4639 19.9568 13.4207 20.9609Z" fill="#4229EF"/>
</svg>
