<svg width="209" height="69" viewBox="0 0 209 69" fill="none" xmlns="http://www.w3.org/2000/svg">
<path d="M157.731 58.0742C156.661 57.6705 155.627 57.3032 154.617 56.8794C154.268 56.7332 154.036 56.6817 153.685 56.9193C152.061 58.0161 150.257 58.2615 148.324 58.0959C146.852 57.9697 145.355 57.9581 143.882 58.0689C142.376 58.1823 140.914 58.1821 139.505 57.5962C139.199 57.469 139.072 57.5552 138.9 57.7942C137.251 60.0841 134.997 61.0176 132.198 60.9248C127.701 60.7758 123.2 60.7803 118.705 60.6004C116.417 60.5089 114.102 60.343 111.868 59.8767C108.951 59.2676 106.333 57.8784 104.05 55.9195C103.919 55.8076 103.78 55.7055 103.63 55.587C102.425 57.0357 100.941 58.0822 99.0812 58.2526C96.9038 58.4521 94.6883 58.662 92.5515 57.8692C92.4144 57.8183 92.2393 57.7671 92.1119 57.8085C90.6943 58.2698 89.2683 58.099 87.8172 58.0004C86.2278 57.8923 84.6128 57.9057 83.0273 58.058C80.8859 58.2638 78.9706 57.8492 77.3258 56.5872C76.4289 57.006 75.5993 57.5252 74.6952 57.7787C73.7853 58.0337 72.7896 58.1745 71.8521 58.1014C69.5528 57.9222 67.2666 57.9021 64.9735 58.1343C63.8436 58.2487 62.743 58.0898 61.6776 57.6828C61.5297 57.6264 61.3254 57.6035 61.1848 57.6595C59.7103 58.2463 58.197 58.2385 56.6339 58.1535C53.6272 57.9901 50.6132 57.9256 47.6015 57.8989C43.0258 57.8582 38.4493 57.8662 33.8734 57.8947C32.602 57.9026 31.3268 58.013 30.0614 58.1506C26.5408 58.5337 23.2771 56.4644 22.2988 53.1056C22.2837 53.0537 22.2421 53.0095 22.1745 52.8992C21.7545 54.2899 21.0525 55.4478 19.9894 56.374C18.4746 57.6937 16.6991 58.3533 14.7137 58.1628C12.3402 57.9351 9.98873 57.9052 7.61163 58.134C3.94424 58.4871 0.569463 55.6589 0.0666836 52.004C-0.12817 50.5876 0.174681 49.236 0.387297 47.8698C1.32235 41.8611 1.79365 35.825 1.25819 29.7543C0.961861 26.3947 0.493485 23.0493 0.0634621 19.7025C-0.506873 15.2637 2.83557 11.3974 7.33002 11.5753C9.87048 11.6758 12.381 11.4765 14.9035 11.3659C18.1833 11.2221 21.3686 11.613 24.4036 12.944C24.5617 13.0133 24.8369 13.0027 24.9724 12.9077C26.6775 11.7114 28.5664 11.4126 30.5947 11.6552C32.3815 11.869 34.1731 11.905 35.961 11.6283C37.3042 11.4204 38.6096 11.5732 39.8968 12.0074C40.1575 12.0953 40.505 12.083 40.7651 11.9877C41.8155 11.603 42.8896 11.4863 44.0021 11.4938C47.3407 11.5162 50.6796 11.4996 54.0184 11.5036C54.4999 11.5042 55.0037 11.4495 55.4579 11.5693C56.308 11.7937 57.1342 11.6182 57.9747 11.6078C59.2054 11.5927 60.4375 11.7644 61.6697 11.7746C62.8043 11.784 63.9398 11.6443 65.0748 11.6458C66.1655 11.6472 67.2561 11.7444 68.3466 11.8023C68.5347 11.8123 68.7383 11.8932 68.907 11.8447C70.0631 11.5126 71.2314 11.5341 72.4095 11.664C74.2393 11.8658 76.0626 11.8732 77.8928 11.6003C78.5496 11.5024 79.2371 11.6082 79.9104 11.6255C80.045 11.629 80.1789 11.6641 80.3134 11.6661C82.7409 11.7029 85.1684 11.7672 87.5957 11.7578C88.6923 11.7535 89.7883 11.6013 90.8846 11.5163C92.977 11.354 94.8035 11.9764 96.3682 13.3733C96.4249 13.424 96.4905 13.4647 96.5492 13.508C97.1487 13.1075 97.7145 12.6711 98.3327 12.3294C99.4546 11.7094 100.679 11.4589 101.959 11.5275C103.193 11.5936 104.425 11.7467 105.657 11.7478C107.216 11.7492 108.774 11.5937 110.333 11.5847C111.537 11.5777 112.684 11.2943 113.857 11.1212C114.976 10.956 116.164 11.0914 117.302 11.2449C120.985 11.742 124.677 11.9645 128.39 11.8336C130.049 11.7751 131.708 11.7071 133.367 11.6431C139.001 11.4258 144.629 11.9701 150.264 11.7511C155.55 11.5456 160.837 11.3848 166.122 11.1609C167.682 11.0949 169.24 10.807 170.786 11.2119C173.146 11.8299 175.549 11.8306 177.958 11.7604C178.36 11.7487 178.759 11.6303 179.162 11.6082C179.777 11.5744 180.424 11.4587 181.005 11.5978C182.121 11.8651 183.197 11.7018 184.305 11.6228C185.373 11.5467 186.458 11.766 187.535 11.7591C188.939 11.7502 190.352 11.7265 191.746 11.5689C196.729 11.0053 200.746 15.1669 199.883 20.0796C198.932 25.4912 198.362 30.9353 198.498 36.4347C198.603 40.6843 199.011 44.9095 199.813 49.0877C200.45 52.4075 199.313 55.3665 196.654 57.0539C194.982 58.1146 193.152 58.2889 191.201 58.1102C189.521 57.9562 187.814 58 186.124 58.0771C185.038 58.1266 183.974 58.189 182.91 57.9228C182.698 57.8698 182.447 57.8784 182.235 57.9345C181.095 58.2357 179.952 58.1721 178.788 58.1101C177.098 58.02 175.401 58.0592 173.707 58.0461C172.806 58.0392 171.903 58.0093 171.003 58.044C170.294 58.0713 169.589 58.1931 168.881 58.2529C167.249 58.3907 165.617 58.5473 163.981 58.6393C161.89 58.7568 159.818 58.5786 157.731 58.0742ZM94.0569 27.1325C93.548 24.4834 93.0224 21.8375 92.5379 19.184C92.3205 17.9934 92.0185 17.6833 90.861 17.8147C87.9568 18.1445 85.0559 18.3056 82.1423 17.9079C81.2659 17.7883 80.8619 18.2512 81.0132 19.1169C81.7177 23.1501 82.2066 27.2062 82.4076 31.298C82.6166 35.5515 82.4623 39.7903 81.9385 44.0135C81.6657 46.2135 81.318 48.4042 81.0053 50.5992C80.8778 51.4945 81.2559 51.8876 82.1408 51.7759C84.6425 51.4601 87.1406 51.396 89.6391 51.8251C90.4389 51.9624 90.8812 51.4742 90.761 50.6616C90.4989 48.888 90.214 47.1172 89.9869 45.3391C89.4602 41.2162 89.2145 37.0761 89.3462 32.9188C89.3695 32.1836 89.4614 31.4506 89.5216 30.7166C89.6858 30.8759 89.7427 31.0375 89.7937 31.201C91.0869 35.3487 91.9517 39.5983 92.7921 43.8531C93.2587 46.2154 93.6849 48.5858 94.158 50.9469C94.321 51.7605 94.7134 52.0484 95.5364 52.0678C96.212 52.0838 96.8886 52.0884 97.5639 52.0683C98.4774 52.0411 98.8933 51.6646 99.0527 50.7688C99.1102 50.4461 99.1571 50.1213 99.2248 49.8008C100.101 45.6523 100.964 41.501 101.864 37.3578C102.361 35.0694 102.922 32.7949 103.454 30.5142C103.611 30.8695 103.673 31.2118 103.682 31.5557C103.744 33.697 103.758 35.8403 103.857 37.9797C103.947 39.9234 103.993 41.8837 104.291 43.8004C105.118 49.1046 108.225 52.4688 113.419 53.7316C115.216 54.1686 117.128 54.2066 118.994 54.2733C123.565 54.4367 128.14 54.5105 132.714 54.6209C133.508 54.64 133.844 54.3132 133.817 53.4988C133.794 52.8048 133.697 52.1115 133.704 51.4186C133.721 49.6627 133.784 47.9074 133.818 46.1516C133.833 45.3945 133.461 45.0875 132.742 45.1877C130.546 45.4937 128.355 45.8381 126.152 46.073C122.844 46.4256 119.53 46.4974 116.217 46.0637C113.792 45.7461 111.995 44.5915 111.194 42.2188C110.877 41.2824 110.681 40.2675 110.646 39.2806C110.402 32.5474 110.847 25.8577 112.058 19.224C112.25 18.1754 111.864 17.8078 110.802 17.8878C109.342 17.9977 107.877 18.1218 106.415 18.1202C104.951 18.1185 103.488 17.9747 102.025 17.8835C101.099 17.8257 100.779 18.1042 100.659 19.0322C100.547 19.8923 100.434 20.7557 100.251 21.6024C99.2629 26.1797 98.2523 30.7523 97.25 35.3266C97.0327 36.3186 96.8187 37.3113 96.575 38.4339C95.7191 34.5999 94.8964 30.914 94.0569 27.1325ZM189.243 51.5599C190.279 51.6536 191.318 51.7218 192.35 51.8486C193.311 51.9667 193.77 51.5193 193.63 50.5558C193.285 48.1907 192.832 45.8335 192.643 43.4556C192.379 40.1314 192.205 36.7917 192.192 33.4579C192.175 28.6834 192.771 23.9531 193.615 19.255C193.808 18.1796 193.398 17.7878 192.312 17.8937C191.295 17.9928 190.275 18.1277 189.257 18.1212C187.871 18.1124 186.485 17.9965 185.1 17.903C184.187 17.8413 183.782 18.2068 183.888 19.045C184.292 22.2385 184.716 25.4296 185.087 28.627C185.225 29.8238 185.236 31.0353 185.305 32.2469C183.389 32.2469 181.569 32.2469 179.746 32.2469C179.746 31.8941 179.733 31.5869 179.748 31.2811C179.961 27.1742 180.418 23.0948 181.129 19.0436C181.27 18.2406 180.888 17.8214 180.073 17.8757C179.651 17.9038 179.233 17.9976 178.81 18.0333C176.766 18.206 174.725 18.2068 172.688 17.9181C171.707 17.779 171.267 18.2313 171.384 19.1425C171.833 22.6406 172.44 26.1299 172.66 29.6431C172.879 33.1595 172.879 36.7111 172.658 40.2275C172.44 43.7023 171.828 47.1526 171.382 50.6127C171.269 51.4903 171.701 51.8976 172.577 51.8413C174.305 51.7301 176.036 51.6476 177.768 51.6185C178.474 51.6066 179.185 51.7498 179.89 51.8486C180.758 51.9702 181.263 51.5403 181.157 50.7581C180.76 47.8169 180.34 44.8783 179.989 41.9315C179.823 40.5389 179.795 39.1299 179.702 37.6888C181.588 37.6888 183.412 37.6888 185.361 37.6888C185.189 39.8027 185.075 41.8811 184.838 43.9454C184.582 46.185 184.209 48.4114 183.89 50.6439C183.767 51.5091 184.19 51.9111 185.042 51.8367C186.404 51.7179 187.769 51.6495 189.243 51.5599ZM17.1477 17.6916C16.1449 17.7106 15.1422 17.7274 14.1395 17.7489C11.964 17.7956 9.78833 17.8853 7.61312 17.8754C6.55672 17.8707 6.1902 18.1379 6.36616 19.1697C7.01846 22.9943 7.46146 26.8404 7.67222 30.7157C7.90435 34.9838 7.8049 39.2423 7.32057 43.4868C7.05407 45.8222 6.6842 48.1458 6.36616 50.4755C6.21107 51.6116 6.58058 51.9241 7.7314 51.7774C10.0176 51.4859 12.3123 51.4455 14.5962 51.7937C15.7851 51.975 16.2517 51.5707 16.0595 50.3994C15.8941 49.3917 15.6983 48.3888 15.5473 47.3792C15.3861 46.3018 15.2617 45.2188 15.113 44.075C15.4165 44.075 15.6248 44.0802 15.8328 44.0742C20.7549 43.9327 24.2472 41.6275 26.0832 37.0546C27.7914 32.8 27.5633 28.4384 26.3103 24.1165C25.5499 21.4935 23.9052 19.5202 21.3042 18.5738C20.0188 18.1061 18.6093 17.9796 17.1477 17.6916ZM79.2398 22.0291C79.403 21.1187 79.568 20.2085 79.7291 19.2976C79.9209 18.2136 79.5111 17.7576 78.4065 17.9095C76.0199 18.2376 73.6384 18.2241 71.252 17.9182C70.2662 17.7919 69.8403 18.2269 70.0612 19.1861C71.221 24.2237 71.4583 29.3449 71.4193 34.484C71.4116 35.5029 71.1846 36.5518 70.8736 37.5279C70.5412 38.5711 69.6715 39.0208 68.5643 39.0006C67.499 38.9812 66.6948 38.4936 66.3755 37.5124C66.0702 36.5742 65.8387 35.5661 65.8272 34.5858C65.7667 29.4205 66.3541 24.3066 67.2168 19.2206C67.3902 18.1986 67.0138 17.7655 66.0094 17.9013C63.5845 18.2294 61.165 18.2345 58.7392 17.9127C57.7834 17.786 57.4062 18.2397 57.5295 19.2102C57.9062 22.174 58.3489 25.1328 58.6055 28.1074C58.8357 30.7768 58.8461 33.4648 58.9675 36.144C59.0816 38.6622 60.1058 40.6888 62.296 42.0198C62.9821 42.4368 63.7351 42.7598 64.4884 43.0438C64.9145 43.2046 65.0497 43.4037 64.9815 43.8354C64.8283 44.8061 64.7403 45.7883 64.5585 46.7531C64.3019 48.1154 63.9441 49.4593 63.708 50.8247C63.5617 51.6704 63.914 51.9081 64.7679 51.8527C66.5152 51.7394 68.2656 51.6551 70.0159 51.6202C70.7226 51.6061 71.4339 51.7415 72.1406 51.829C73.0944 51.9472 73.4751 51.56 73.3211 50.6011C73.3058 50.5062 73.2746 50.4139 73.2584 50.3191C72.8957 48.1921 72.537 46.0644 72.1702 43.9381C72.0899 43.4728 72.1795 43.1811 72.7229 43.0951C73.0958 43.0361 73.456 42.8622 73.8071 42.7064C76.6483 41.4455 78.2213 39.3186 78.284 36.1524C78.3173 34.4737 78.3184 32.7911 78.4411 31.1181C78.6611 28.1189 78.962 25.1256 79.2398 22.0291ZM142.271 43.3413C142.011 45.7186 141.756 48.0965 141.486 50.4728C141.356 51.6192 141.717 51.964 142.856 51.7768C143.33 51.6988 143.814 51.619 144.291 51.6318C145.964 51.6764 147.638 51.7373 149.308 51.8405C150.104 51.8897 150.533 51.5586 150.495 50.7645C150.478 50.4186 150.413 50.0753 150.384 49.7296C150.096 46.269 149.777 42.8106 149.534 39.3469C149.202 34.6035 149.173 29.8583 149.664 25.1203C149.783 23.9675 149.788 23.9322 150.983 23.9527C154.572 24.0145 158.163 24.0444 161.748 24.211C163.843 24.3085 165.938 24.5773 168.014 24.8925C169.669 25.1437 169.912 24.962 169.826 23.2726C169.75 21.7712 169.744 20.263 169.786 18.76C169.818 17.5939 169.527 17.2727 168.353 17.3403C165.445 17.5077 162.536 17.68 159.625 17.8003C152.43 18.0977 145.233 18.24 138.034 17.93C137.282 17.8976 136.532 17.815 135.78 17.7983C134.947 17.7798 134.615 18.134 134.628 18.9525C134.63 19.1262 134.649 19.2997 134.649 19.4733C134.652 20.8805 134.7 22.2895 134.643 23.6944C134.578 25.2764 134.884 25.5563 136.392 25.0468C137.968 24.5147 139.559 24.0693 141.23 23.9616C142.017 23.9108 142.078 23.927 142.126 24.6726C142.297 27.3106 142.568 29.9495 142.575 32.5887C142.584 36.1365 142.385 39.6849 142.271 43.3413ZM28.474 51.5415C28.8635 52.0182 29.3894 51.8558 29.8768 51.826C31.3398 51.7367 32.8009 51.565 34.2645 51.5423C42.1022 51.4208 49.9381 51.4972 57.7687 51.8894C59.0161 51.9519 59.2662 51.6865 59.2192 50.4319C59.1557 48.7358 59.1076 47.0387 59.0856 45.3416C59.0769 44.6682 59.1642 43.994 59.1925 43.3195C59.2125 42.8433 58.951 42.699 58.5219 42.8199C58.3378 42.8718 58.1682 42.9741 57.9852 43.0314C56.5905 43.4685 55.2173 44.0081 53.794 44.314C48.8286 45.3812 43.7927 45.7249 38.7206 45.5714C38.2622 45.5575 37.8046 45.5148 37.2873 45.4818C37.1003 43.1091 36.8916 40.7686 36.736 38.4246C36.3556 32.6957 36.8301 27.013 37.7178 21.3556C37.8462 20.5373 38.0175 19.7237 38.1019 18.9011C38.1744 18.1943 37.8168 17.862 37.1117 17.8698C36.9578 17.8715 36.8032 17.8895 36.6507 17.9119C34.3435 18.2497 32.0365 18.2239 29.7272 17.9278C28.5773 17.7804 28.1937 18.2023 28.397 19.347C29.1061 23.3406 29.5387 27.3661 29.7302 31.4159C30.0287 37.7268 29.4751 43.9816 28.4483 50.2041C28.3808 50.6131 28.4259 51.0408 28.474 51.5415ZM113.758 42.6134C113.85 43.2342 114.326 43.2389 114.772 43.1943C116.854 42.986 118.93 42.986 121.007 43.2675C121.718 43.3639 122.141 43.0029 122.236 42.2879C122.282 41.9438 122.312 41.5976 122.351 41.2525C122.465 40.2245 122.579 39.1965 122.693 38.1709C124.009 38.1709 125.254 38.1709 126.518 38.1709C126.518 38.3288 126.534 38.4438 126.515 38.5529C126.316 39.7111 126.109 40.868 125.91 42.0262C125.761 42.8959 126.216 43.3863 127.074 43.2429C128.92 42.9342 130.763 43.0037 132.606 43.2493C133.521 43.3713 134.002 42.9128 133.916 41.9831C133.715 39.813 133.488 37.6451 133.315 35.4727C132.979 31.2468 133.115 27.0259 133.534 22.8118C133.652 21.6219 133.799 20.4348 133.912 19.2445C133.997 18.3508 133.652 17.975 132.767 17.9816C132.246 17.9855 131.725 18.0233 131.205 18.0549C127.191 18.2988 123.18 18.231 119.178 17.8447C117.912 17.7225 116.656 17.5051 115.394 17.3395C114.478 17.2192 114.036 17.6107 114.052 18.4513C114.088 20.3032 114.102 22.1556 114.116 24.0079C114.121 24.5477 114.063 25.0899 114.096 25.6272C114.13 26.187 114.414 26.3392 114.914 26.1105C115.122 26.015 115.301 25.8559 115.507 25.7528C116.487 25.2621 117.467 24.7718 118.457 24.3035C118.668 24.2042 118.921 24.1978 119.16 24.1476C119.175 24.2566 119.191 24.2955 119.184 24.3294C117.963 30.0682 116.373 35.6966 114.17 41.1432C113.992 41.5847 113.89 42.0572 113.758 42.6134ZM50.8797 38.8174C50.8725 39.0681 50.8595 39.3189 50.8589 39.5697C50.8568 40.5242 51.2031 40.8495 52.1428 40.8366C54.0896 40.81 56.0365 40.7934 57.9835 40.786C58.8892 40.7826 59.2249 40.3779 58.9913 39.5107C58.7708 38.6924 58.5295 37.8796 58.3143 37.06C56.7694 31.1761 55.4841 25.2515 55.4555 19.1243C55.4506 18.0596 55.1073 17.773 54.0244 17.7954C52.0766 17.8357 50.1289 17.911 48.1811 17.9159C46.6964 17.9197 45.2117 17.8265 43.7267 17.7975C42.8644 17.7807 42.5292 18.1157 42.4975 18.9655C42.3308 23.4477 41.7134 27.8734 40.8177 32.2629C40.1862 35.3579 39.5246 38.4468 38.8953 41.5423C38.7083 42.462 39.0599 42.8239 40.0001 42.8193C41.9452 42.8098 43.8904 42.8107 45.8354 42.8209C46.7235 42.8255 47.0503 42.5159 47.046 41.6093C47.0409 40.5479 47.03 39.4864 47.025 38.425C47.0217 37.717 47.0244 37.0091 47.0244 36.268C48.3428 36.268 49.5665 36.268 50.8832 36.268C50.8832 37.0938 50.8832 37.8984 50.8797 38.8174ZM167.75 44.4874C167.595 44.6322 167.441 44.779 167.284 44.9215C165.069 46.9299 161.222 46.6119 159.875 43.1417C158.851 40.5032 158.843 37.7929 159.808 35.1576C161.037 31.8032 164.68 31.0135 167.29 33.4683C167.948 34.0873 168.511 34.8069 169.121 35.4775C169.211 35.5758 169.317 35.6586 169.451 35.7811C169.451 34.457 169.414 33.2237 169.461 31.9934C169.518 30.4707 169.656 28.9512 169.737 27.4291C169.787 26.4744 169.431 26.1498 168.474 26.1367C167.665 26.1255 166.856 26.0775 166.049 26.0252C164.876 25.9492 163.705 25.797 162.531 25.7784C158.066 25.7077 154.542 28.0831 153.068 32.2918C151.464 36.8725 151.556 41.5184 153.086 46.0922C154.14 49.24 156.36 51.2642 159.639 52.0296C161.254 52.4065 162.891 52.3876 164.532 52.2557C165.839 52.1506 167.146 52.0437 168.454 51.9602C169.512 51.8927 169.788 51.6095 169.736 50.5646C169.732 50.4875 169.725 50.4105 169.723 50.3333C169.655 47.8476 169.589 45.3619 169.52 42.8763C169.518 42.7945 169.496 42.7132 169.472 42.5528C168.877 43.223 168.342 43.8256 167.75 44.4874Z" fill="#4027F4"/>
<path d="M94.0652 27.1803C94.8963 30.914 95.7191 34.5999 96.5749 38.4338C96.8187 37.3113 97.0327 36.3186 97.25 35.3266C98.2522 30.7522 99.2629 26.1797 100.251 21.6024C100.434 20.7556 100.547 19.8922 100.659 19.0322C100.779 18.1041 101.099 17.8257 102.025 17.8834C103.488 17.9747 104.951 18.1185 106.415 18.1201C107.877 18.1218 109.342 17.9976 110.802 17.8877C111.864 17.8078 112.25 18.1754 112.058 19.2239C110.847 25.8576 110.401 32.5474 110.646 39.2806C110.681 40.2675 110.877 41.2824 111.194 42.2188C111.995 44.5914 113.792 45.7461 116.217 46.0636C119.53 46.4974 122.844 46.4256 126.152 46.073C128.355 45.8381 130.546 45.4936 132.742 45.1877C133.461 45.0875 133.833 45.3945 133.818 46.1516C133.784 47.9073 133.721 49.6627 133.704 51.4185C133.697 52.1114 133.794 52.8047 133.817 53.4987C133.844 54.3132 133.508 54.64 132.714 54.6208C128.14 54.5105 123.565 54.4367 118.994 54.2732C117.128 54.2065 115.216 54.1685 113.419 53.7315C108.225 52.4688 105.118 49.1046 104.291 43.8003C103.993 41.8837 103.947 39.9233 103.857 37.9796C103.758 35.8402 103.744 33.6969 103.682 31.5556C103.673 31.2118 103.611 30.8695 103.454 30.5141C102.922 32.7949 102.361 35.0694 101.864 37.3577C100.964 41.5009 100.101 45.6522 99.2248 49.8007C99.1571 50.1212 99.1101 50.4461 99.0527 50.7688C98.8933 51.6646 98.4774 52.041 97.5638 52.0682C96.8886 52.0883 96.2119 52.0837 95.5364 52.0678C94.7133 52.0483 94.321 51.7604 94.158 50.9468C93.6848 48.5858 93.2587 46.2154 92.7921 43.853C91.9517 39.5983 91.0869 35.3486 89.7937 31.2009C89.7427 31.0374 89.6858 30.8758 89.5216 30.7166C89.4614 31.4506 89.3695 32.1836 89.3462 32.9188C89.2145 37.076 89.4602 41.2161 89.9869 45.339C90.214 47.1171 90.4988 48.888 90.761 50.6616C90.8811 51.4741 90.4389 51.9624 89.6391 51.825C87.1405 51.3959 84.6425 51.4601 82.1408 51.7759C81.2559 51.8875 80.8778 51.4944 81.0053 50.5992C81.3179 48.4041 81.6657 46.2134 81.9385 44.0134C82.4622 39.7902 82.6166 35.5515 82.4076 31.2979C82.2065 27.2061 81.7177 23.15 81.0131 19.1168C80.8619 18.2512 81.2658 17.7882 82.1423 17.9079C85.0558 18.3056 87.9568 18.1445 90.8609 17.8147C92.0184 17.6832 92.3205 17.9933 92.5379 19.184C93.0223 21.8374 93.548 24.4834 94.0652 27.1803Z" fill="#EEFF00"/>
<path d="M189.188 51.5598C187.769 51.6494 186.404 51.7179 185.042 51.8367C184.19 51.9111 183.767 51.5091 183.89 50.6439C184.209 48.4114 184.581 46.185 184.838 43.9454C185.075 41.8811 185.189 39.8027 185.361 37.6887C183.411 37.6887 181.588 37.6887 179.702 37.6887C179.795 39.1299 179.823 40.5389 179.989 41.9315C180.34 44.8783 180.76 47.8168 181.157 50.758C181.263 51.5403 180.758 51.9701 179.89 51.8486C179.185 51.7498 178.474 51.6066 177.768 51.6184C176.036 51.6476 174.305 51.7301 172.577 51.8413C171.701 51.8976 171.269 51.4903 171.382 50.6127C171.828 47.1526 172.44 43.7022 172.658 40.2274C172.879 36.7111 172.879 33.1594 172.66 29.6431C172.44 26.1299 171.833 22.6406 171.384 19.1425C171.267 18.2313 171.707 17.779 172.688 17.918C174.725 18.2068 176.766 18.206 178.81 18.0333C179.233 17.9976 179.65 17.9038 180.073 17.8757C180.888 17.8214 181.27 18.2406 181.129 19.0436C180.418 23.0947 179.961 27.1742 179.748 31.2811C179.733 31.5868 179.746 31.8941 179.746 32.2469C181.569 32.2469 183.389 32.2469 185.305 32.2469C185.236 31.0353 185.225 29.8238 185.087 28.627C184.716 25.4296 184.292 22.2385 183.888 19.045C183.782 18.2068 184.187 17.8413 185.1 17.903C186.485 17.9965 187.871 18.1124 189.257 18.1212C190.275 18.1277 191.295 17.9927 192.312 17.8936C193.398 17.7877 193.808 18.1796 193.615 19.255C192.771 23.9531 192.175 28.6834 192.192 33.4579C192.205 36.7917 192.379 40.1314 192.643 43.4556C192.832 45.8335 193.285 48.1906 193.63 50.5557C193.77 51.5192 193.311 51.9667 192.35 51.8486C191.318 51.7217 190.279 51.6536 189.188 51.5598Z" fill="#EEFF00"/>
<path d="M17.2019 17.6951C18.6093 17.9795 20.0188 18.106 21.3042 18.5737C23.9052 19.5201 25.5499 21.4934 26.3103 24.1164C27.5633 28.4383 27.7915 32.8 26.0832 37.0545C24.2472 41.6274 20.7549 43.9326 15.8328 44.0742C15.6248 44.0801 15.4165 44.0749 15.113 44.0749C15.2617 45.2188 15.3861 46.3017 15.5473 47.3791C15.6983 48.3888 15.8941 49.3917 16.0595 50.3993C16.2517 51.5706 15.7851 51.9749 14.5962 51.7936C12.3123 51.4454 10.0176 51.4858 7.73141 51.7773C6.58059 51.924 6.21108 51.6115 6.36617 50.4754C6.68421 48.1458 7.05408 45.8222 7.32058 43.4867C7.80491 39.2423 7.90436 34.9837 7.67223 30.7156C7.46147 26.8404 7.01847 22.9943 6.36618 19.1696C6.19021 18.1379 6.55673 17.8706 7.61312 17.8754C9.78834 17.8853 11.964 17.7956 14.1395 17.7488C15.1422 17.7273 16.145 17.7105 17.2019 17.6951ZM14.6098 36.5946C14.6423 37.0906 14.6749 37.5867 14.7135 38.1761C15.4412 38.1244 16.1503 38.1686 16.8101 38.0091C18.6956 37.5531 19.6223 36.1322 20.1056 34.3956C20.7724 32 20.5607 29.5736 20.1762 27.1605C20.0178 26.1661 19.7318 25.2021 19.0997 24.3835C18.1337 23.1324 16.578 23.1779 15.8269 24.5539C15.4474 25.2492 15.1213 26.0566 15.0691 26.8333C14.8534 30.046 14.7516 33.2663 14.6098 36.5946Z" fill="#F6F7F1"/>
<path d="M79.2343 22.0795C78.9619 25.1256 78.6611 28.1189 78.4411 31.1181C78.3183 32.7911 78.3172 34.4737 78.284 36.1524C78.2212 39.3187 76.6482 41.4456 73.8071 42.7064C73.456 42.8623 73.0957 43.0361 72.7229 43.0952C72.1795 43.1812 72.0898 43.4728 72.1701 43.9382C72.5369 46.0644 72.8957 48.1921 73.2584 50.3191C73.2745 50.4139 73.3058 50.5062 73.321 50.6011C73.4751 51.56 73.0944 51.9473 72.1405 51.8291C71.4338 51.7415 70.7225 51.6062 70.0158 51.6203C68.2655 51.6552 66.5151 51.7395 64.7679 51.8528C63.9139 51.9081 63.5616 51.6704 63.7079 50.8247C63.9441 49.4594 64.3018 48.1155 64.5585 46.7532C64.7402 45.7883 64.8283 44.8062 64.9815 43.8355C65.0497 43.4037 64.9145 43.2046 64.4883 43.0439C63.735 42.7599 62.9821 42.4369 62.296 42.0199C60.1058 40.6889 59.0816 38.6622 58.9675 36.144C58.8461 33.4648 58.8357 30.7768 58.6054 28.1074C58.3488 25.1329 57.9062 22.1741 57.5295 19.2103C57.4061 18.2397 57.7834 17.786 58.7391 17.9128C61.1649 18.2346 63.5845 18.2294 66.0094 17.9014C67.0137 17.7655 67.3902 18.1986 67.2168 19.2207C66.3541 24.3066 65.7666 29.4205 65.8272 34.5859C65.8386 35.5662 66.0701 36.5742 66.3754 37.5124C66.6947 38.4936 67.4989 38.9813 68.5642 39.0007C69.6715 39.0209 70.5411 38.5712 70.8736 37.5279C71.1846 36.5519 71.4115 35.5029 71.4193 34.4841C71.4583 29.3449 71.2209 24.2238 70.0611 19.1861C69.8403 18.2269 70.2662 17.7919 71.2519 17.9183C73.6384 18.2241 76.0198 18.2376 78.4065 17.9095C79.511 17.7576 79.9209 18.2137 79.7291 19.2976C79.5679 20.2085 79.403 21.1187 79.2343 22.0795Z" fill="#F6F7F1"/>
<path d="M142.273 43.2872C142.385 39.6849 142.584 36.1366 142.575 32.5888C142.568 29.9496 142.297 27.3106 142.126 24.6727C142.078 23.9271 142.017 23.9109 141.229 23.9616C139.559 24.0693 137.968 24.5147 136.392 25.0469C134.884 25.5563 134.578 25.2764 134.643 23.6944C134.7 22.2896 134.652 20.8805 134.649 19.4733C134.649 19.2997 134.63 19.1262 134.628 18.9526C134.615 18.134 134.947 17.7799 135.78 17.7984C136.532 17.8151 137.282 17.8977 138.034 17.93C145.233 18.24 152.43 18.0977 159.625 17.8003C162.536 17.68 165.445 17.5078 168.353 17.3403C169.527 17.2728 169.818 17.5939 169.786 18.7601C169.744 20.2631 169.75 21.7713 169.826 23.2726C169.912 24.962 169.669 25.1438 168.014 24.8926C165.938 24.5774 163.843 24.3085 161.748 24.2111C158.163 24.0444 154.572 24.0145 150.983 23.9528C149.788 23.9322 149.783 23.9676 149.664 25.1204C149.173 29.8583 149.202 34.6035 149.534 39.3469C149.777 42.8107 150.096 46.2691 150.384 49.7296C150.413 50.0753 150.478 50.4186 150.495 50.7645C150.533 51.5586 150.104 51.8897 149.308 51.8406C147.637 51.7374 145.964 51.6764 144.291 51.6318C143.814 51.6191 143.33 51.6988 142.855 51.7768C141.717 51.9641 141.356 51.6193 141.486 50.4728C141.756 48.0965 142.01 45.7186 142.273 43.2872Z" fill="#EEFF00"/>
<path d="M28.4464 51.5006C28.426 51.0407 28.3808 50.6131 28.4483 50.2041C29.4751 43.9816 30.0287 37.7268 29.7302 31.4159C29.5387 27.3661 29.1062 23.3406 28.397 19.3469C28.1937 18.2023 28.5773 17.7803 29.7272 17.9278C32.0366 18.2239 34.3435 18.2497 36.6507 17.9118C36.8032 17.8895 36.9579 17.8715 37.1117 17.8698C37.8168 17.8619 38.1745 18.1943 38.102 18.901C38.0176 19.7237 37.8462 20.5372 37.7178 21.3556C36.8301 27.013 36.3556 32.6956 36.736 38.4246C36.8917 40.7686 37.1004 43.109 37.2873 45.4818C37.8047 45.5148 38.2622 45.5575 38.7207 45.5713C43.7928 45.7248 48.8286 45.3812 53.794 44.314C55.2173 44.0081 56.5905 43.4685 57.9852 43.0314C58.1683 42.974 58.3378 42.8718 58.5219 42.8199C58.951 42.699 59.2126 42.8433 59.1925 43.3195C59.1642 43.994 59.0769 44.6682 59.0857 45.3416C59.1076 47.0387 59.1557 48.7358 59.2192 50.4319C59.2662 51.6865 59.0161 51.9518 57.7687 51.8894C49.9381 51.4972 42.1023 51.4208 34.2646 51.5423C32.8009 51.565 31.3399 51.7366 29.8768 51.826C29.3894 51.8558 28.8635 52.0182 28.4464 51.5006Z" fill="#F6F7F1"/>
<path d="M113.755 42.5642C113.89 42.0571 113.992 41.5846 114.17 41.1432C116.373 35.6965 117.963 30.0681 119.184 24.3293C119.191 24.2954 119.175 24.2565 119.16 24.1475C118.921 24.1977 118.668 24.2041 118.458 24.3034C117.467 24.7717 116.487 25.2621 115.507 25.7527C115.301 25.8558 115.123 26.0149 114.914 26.1104C114.414 26.3392 114.13 26.1869 114.096 25.6271C114.063 25.0898 114.121 24.5476 114.117 24.0078C114.102 22.1555 114.088 20.3032 114.052 18.4513C114.036 17.6107 114.478 17.2191 115.394 17.3394C116.656 17.5051 117.912 17.7225 119.178 17.8446C123.18 18.231 127.191 18.2988 131.205 18.0548C131.726 18.0232 132.246 17.9854 132.767 17.9815C133.652 17.9749 133.997 18.3507 133.912 19.2444C133.799 20.4348 133.652 21.6218 133.534 22.8117C133.115 27.0259 132.979 31.2467 133.315 35.4727C133.488 37.645 133.715 39.8129 133.916 41.983C134.002 42.9128 133.521 43.3712 132.606 43.2492C130.763 43.0036 128.92 42.9341 127.074 43.2428C126.216 43.3862 125.761 42.8959 125.91 42.0261C126.109 40.8679 126.316 39.7111 126.515 38.5528C126.534 38.4438 126.518 38.3287 126.518 38.1709C125.254 38.1709 124.009 38.1709 122.693 38.1709C122.579 39.1964 122.465 40.2244 122.351 41.2524C122.313 41.5976 122.282 41.9437 122.236 42.2878C122.141 43.0028 121.718 43.3638 121.007 43.2674C118.93 42.9859 116.854 42.9859 114.772 43.1942C114.326 43.2389 113.85 43.2341 113.755 42.5642ZM125.017 26.5519C124.425 28.9936 123.832 31.4354 123.226 33.9341C124.542 33.9341 125.731 33.9341 126.914 33.9341C127.363 31.9828 126.843 22.8279 126.311 21.7458C125.882 23.3366 125.46 24.8977 125.017 26.5519Z" fill="#EEFF00"/>
<path d="M50.8815 38.7601C50.8832 37.8983 50.8832 37.0938 50.8832 36.2679C49.5666 36.2679 48.3429 36.2679 47.0244 36.2679C47.0244 37.009 47.0218 37.717 47.0251 38.4249C47.03 39.4864 47.0409 40.5478 47.046 41.6093C47.0504 42.5159 46.7236 42.8255 45.8355 42.8208C43.8904 42.8106 41.9452 42.8097 40.0002 42.8192C39.06 42.8238 38.7084 42.462 38.8954 41.5423C39.5247 38.4468 40.1862 35.3579 40.8178 32.2629C41.7135 27.8734 42.3308 23.4477 42.4976 18.9655C42.5292 18.1156 42.8644 17.7807 43.7267 17.7975C45.2118 17.8265 46.6965 17.9197 48.1812 17.9159C50.129 17.911 52.0766 17.8356 54.0244 17.7954C55.1074 17.773 55.4506 18.0596 55.4556 19.1243C55.4841 25.2515 56.7694 31.176 58.3143 37.0599C58.5295 37.8796 58.7709 38.6924 58.9913 39.5107C59.2249 40.3779 58.8892 40.7826 57.9836 40.786C56.0366 40.7934 54.0896 40.81 52.1428 40.8366C51.2032 40.8494 50.8568 40.5241 50.859 39.5696C50.8595 39.3189 50.8725 39.0681 50.8815 38.7601ZM47.6867 29.3961C47.5304 30.4345 47.3742 31.473 47.2141 32.537C48.4156 32.537 49.5065 32.537 50.7771 32.537C50.1999 29.1137 49.6337 25.7562 49.0676 22.3986C49.0109 22.402 48.9542 22.4054 48.8975 22.4088C48.499 24.7047 48.1006 27.0006 47.6867 29.3961Z" fill="#F6F7F1"/>
<path d="M167.778 44.4577C168.342 43.8256 168.877 43.223 169.472 42.5528C169.496 42.7132 169.518 42.7945 169.52 42.8763C169.589 45.3619 169.655 47.8476 169.723 50.3333C169.725 50.4105 169.732 50.4875 169.736 50.5646C169.788 51.6095 169.512 51.8927 168.454 51.9602C167.146 52.0437 165.839 52.1506 164.532 52.2557C162.891 52.3876 161.254 52.4065 159.639 52.0296C156.36 51.2642 154.14 49.24 153.086 46.0922C151.556 41.5184 151.464 36.8725 153.068 32.2918C154.542 28.0831 158.066 25.7077 162.531 25.7784C163.705 25.797 164.876 25.9492 166.049 26.0252C166.856 26.0775 167.665 26.1255 168.474 26.1367C169.431 26.1498 169.787 26.4744 169.737 27.4291C169.656 28.9512 169.518 30.4707 169.461 31.9934C169.414 33.2237 169.451 34.457 169.451 35.7811C169.317 35.6586 169.211 35.5758 169.121 35.4775C168.511 34.8069 167.948 34.0873 167.29 33.4683C164.68 31.0135 161.037 31.8032 159.808 35.1575C158.843 37.7929 158.851 40.5032 159.875 43.1417C161.222 46.6119 165.069 46.9299 167.284 44.9215C167.441 44.779 167.595 44.6322 167.778 44.4577Z" fill="#EEFF00"/>
<path d="M14.6089 36.5392C14.7516 33.2663 14.8534 30.046 15.0691 26.8333C15.1213 26.0566 15.4474 25.2493 15.827 24.5539C16.578 23.178 18.1338 23.1325 19.0998 24.3835C19.7318 25.2021 20.0179 26.1661 20.1763 27.1605C20.5607 29.5736 20.7724 32 20.1057 34.3956C19.6224 36.1322 18.6956 37.5531 16.8102 38.0091C16.1504 38.1686 15.4413 38.1244 14.7136 38.1761C14.6749 37.5867 14.6424 37.0907 14.6089 36.5392Z" fill="#4127F3"/>
<path d="M125.028 26.5054C125.46 24.8977 125.881 23.3366 126.311 21.7458C126.843 22.8279 127.363 31.9828 126.914 33.9341C125.731 33.9341 124.542 33.9341 123.226 33.9341C123.832 31.4354 124.425 28.9937 125.028 26.5054Z" fill="#432AEF"/>
<path d="M47.6944 29.3464C48.1006 27.0007 48.499 24.7048 48.8975 22.4089C48.9542 22.4055 49.0109 22.4021 49.0676 22.3987C49.6337 25.7562 50.1999 29.1137 50.7771 32.537C49.5065 32.537 48.4156 32.537 47.2141 32.537C47.3742 31.473 47.5305 30.4346 47.6944 29.3464Z" fill="#432AEF"/>
<path d="M188.422 1.97461C188.565 2.21279 188.707 2.45597 188.844 2.70508C189.326 3.58252 189.737 4.46207 190.218 5.41211V5.41309C190.285 5.54555 190.365 5.68302 190.46 5.81738C190.614 6.03442 190.795 6.25537 191.009 6.43164C191.226 6.61066 191.539 6.79229 191.939 6.80957C192.351 6.82723 192.687 6.66458 192.93 6.47754C193.16 6.29945 193.347 6.06929 193.501 5.84668C194.189 4.85187 194.879 3.68646 195.497 2.74805C195.669 2.48626 195.832 2.24617 195.996 2.02734C196.028 2.74043 196.036 3.45601 196.064 4.22852C196.094 5.04438 196.1 5.97106 196.19 6.86719C196.235 7.31351 196.409 8.00644 197.079 8.33105C197.731 8.64655 198.381 8.38015 198.769 8.15625C199.597 7.67726 200.445 7.07937 201.17 6.61719C201.703 6.27765 202.197 5.95231 202.693 5.65137C202.436 6.33507 202.156 7.01931 201.869 7.72949C201.733 8.06569 201.588 8.39986 201.438 8.74902C201.289 9.09412 201.134 9.45295 200.989 9.81836C200.821 10.2416 200.624 10.9564 201.036 11.583C201.469 12.2404 202.232 12.3059 202.713 12.2832C203.267 12.257 203.81 12.1942 204.325 12.1289C204.852 12.0621 205.336 11.9945 205.828 11.9473C206.271 11.9048 206.694 11.8614 207.107 11.8301C206.904 11.9809 206.69 12.1356 206.462 12.2949C206.014 12.6077 205.553 12.9075 205.075 13.2168C204.602 13.5229 204.112 13.8392 203.631 14.1729C203.277 14.4181 202.74 14.8665 202.695 15.5801C202.649 16.316 203.152 16.8226 203.502 17.1064C204.436 17.8649 205.451 18.6023 206.391 19.3086C206.209 19.2534 206.026 19.197 205.843 19.1387C205.406 18.9997 204.972 18.8449 204.52 18.6836C204.072 18.5241 203.605 18.3585 203.132 18.207C202.644 18.0509 201.899 17.9025 201.275 18.3545C200.653 18.8056 200.558 19.5587 200.553 20.0762C200.538 21.3981 200.559 22.8702 200.557 24.1875C200.46 24.0157 200.358 23.8349 200.25 23.6406C200.163 23.4844 200.082 23.3174 199.987 23.1172C199.896 22.9247 199.79 22.6993 199.668 22.4697L199.663 22.46L199.657 22.4502C199.269 21.7597 198.821 20.8262 198.351 20.0742C198.143 19.7425 197.718 19.1981 196.997 19.1797C196.295 19.1617 195.834 19.6622 195.598 19.9736C195.026 20.7289 194.47 21.6596 194.007 22.3359C193.626 22.8914 193.287 23.4072 192.936 23.8945C192.912 23.3979 192.907 22.884 192.888 22.3174C192.856 21.3601 192.863 20.2511 192.794 19.2158C192.767 18.8189 192.645 18.0282 191.885 17.7061C191.538 17.5592 191.197 17.5818 190.943 17.6367C190.689 17.6918 190.442 17.7961 190.218 17.9111L190.188 17.9258L190.161 17.9424C189.455 18.364 188.807 18.7613 188.17 19.1484C187.477 19.5697 186.842 19.9765 186.202 20.3564C186.296 20.0827 186.399 19.8098 186.51 19.5391C186.742 18.9724 186.99 18.4108 187.243 17.832C187.495 17.2578 187.752 16.6682 187.991 16.0684C188.16 15.644 188.276 15.0113 187.89 14.4502C187.51 13.8995 186.888 13.7732 186.443 13.7656C185.798 13.7546 185.157 13.8247 184.601 13.8809C183.722 13.9696 182.906 14.0734 182.094 14.1602C182.945 13.5586 183.798 12.9578 184.648 12.3535C184.912 12.1665 185.252 11.9285 185.559 11.6426C185.698 11.5122 185.856 11.3547 185.982 11.1768C186.112 10.994 186.259 10.7205 186.271 10.3691C186.283 10.0067 186.147 9.7142 186.004 9.50684C185.87 9.31246 185.699 9.1481 185.546 9.01465C184.811 8.37419 183.97 7.79093 183.276 7.26367C183.046 7.08848 182.824 6.92503 182.609 6.76562C182.826 6.82909 183.046 6.89451 183.273 6.95898C183.435 7.00477 183.578 7.04708 183.752 7.11133V7.11035C184.42 7.36322 185.136 7.65722 185.86 7.87109C186.115 7.94611 186.395 8.0116 186.673 8.01953C186.964 8.02782 187.322 7.97441 187.647 7.73926C187.967 7.50807 188.13 7.19149 188.218 6.92871C188.304 6.67239 188.344 6.39309 188.368 6.13086L188.372 6.08984L188.373 6.04785C188.38 5.2387 188.384 4.44138 188.395 3.64062C188.402 3.08095 188.411 2.52657 188.422 1.97461Z" fill="#EDFE06" stroke="#4027F4" stroke-width="2"/>
<path d="M82.8135 44.7539C82.85 45.7587 82.8817 46.8003 82.9346 47.8105C82.9706 48.4982 83.0397 49.1989 83.1602 49.8945C83.1866 50.0471 83.2627 50.4446 83.5605 50.7705C83.7294 50.9552 83.9618 51.1083 84.2539 51.1758C84.508 51.2344 84.7524 51.2133 84.9697 51.1592L84.9707 51.1611C85.0071 51.1533 85.0437 51.1458 85.0967 51.1357C85.144 51.1268 85.2095 51.1142 85.2764 51.0986C85.4065 51.0683 85.6125 51.0119 85.8203 50.8818C86.1341 50.6853 86.4447 50.4836 86.7461 50.2881C87.0023 50.1219 87.2537 49.9602 87.5059 49.8018C87.5253 49.7947 87.5375 49.7916 87.5391 49.791L88.5381 49.3955L88.3975 49.1035C88.4722 49.0376 88.5394 48.971 88.6016 48.9062C88.9421 48.7074 89.2647 48.5159 89.583 48.3271C89.3065 49.1058 89.006 49.8772 88.7051 50.7158C88.4441 51.4431 88.2022 52.1873 87.9502 52.9346L87.9023 53.0781L87.8984 53.2285C87.8938 53.4111 87.9037 53.6077 87.9053 53.6992L87.9131 54.1455L88.251 54.4385C88.2777 54.4616 88.3011 54.4833 88.3545 54.5322C88.3988 54.5728 88.4647 54.633 88.5391 54.6914C88.6119 54.7486 88.7203 54.8272 88.8564 54.8916C88.994 54.9567 89.1966 55.0248 89.4434 55.0166C90.0094 54.9976 90.6727 54.8923 91.1445 54.8447C91.3529 54.8365 91.3506 54.8301 91.502 54.8291H91.5918L91.6807 54.8125C91.9586 54.76 92.2804 54.6808 92.5078 54.6309C92.5546 54.6263 92.5959 54.6221 92.6162 54.6201C92.6544 54.6163 92.6794 54.6149 92.708 54.6143H92.7266L92.7441 54.6123C93.2372 54.5828 93.6883 54.5475 94.126 54.5156C93.2746 55.0868 92.4572 55.6509 91.6484 56.2168C91.3874 56.3995 90.9185 56.6902 90.5537 57.0234C90.1636 57.3799 89.8618 57.8832 89.877 58.4883C89.8922 59.095 90.2204 59.5805 90.6279 59.9102C91.0812 60.2767 91.5601 60.6199 91.9912 60.9375C92.4966 61.3098 92.9937 61.6682 93.4834 62.0264C92.4409 61.6757 91.3884 61.3184 90.3262 61.0195C89.8669 60.8903 89.1027 60.7426 88.4961 61.251C88.2003 61.4988 88.0532 61.8181 87.9766 62.0938C87.9014 62.3643 87.8771 62.6534 87.873 62.9268C87.8714 63.0378 87.88 63.1362 87.8867 63.2021C87.8946 63.2794 87.8974 63.2954 87.9004 63.3271C87.931 64.1447 87.9644 64.9467 87.9893 65.7539C88.0044 66.2444 88.0153 66.7361 88.0254 67.2285C87.7465 66.7476 87.4772 66.2495 87.1631 65.7061C86.6882 64.8844 86.1849 63.9421 85.6113 63.0791C85.3753 62.7241 84.9271 62.2457 84.2344 62.2549C83.5512 62.2641 83.1145 62.7434 82.8857 63.0908C82.5635 63.5802 82.264 64.0801 81.9775 64.5596C81.6875 65.045 81.4109 65.5094 81.1172 65.959C80.8329 66.3942 80.5384 66.817 80.2344 67.2256C80.2232 67.1157 80.2156 67.0058 80.2109 66.8965C80.1639 65.7945 80.1714 64.742 80.1445 63.5869C80.1404 63.4114 80.1169 63.25 80.0996 63.1357L80.0557 62.8096C80.0511 62.7602 80.0476 62.7067 80.0449 62.6348C80.0425 62.5712 80.0402 62.4744 80.0332 62.3828C80.0206 62.217 79.9867 61.8803 79.7793 61.5635C79.6023 61.2931 79.3359 61.099 79.1514 60.9912C79.0475 60.9305 78.9099 60.8625 78.7539 60.8174C78.6758 60.7948 78.5641 60.7691 78.4326 60.7656C78.3071 60.7623 78.0955 60.7765 77.874 60.8975C77.0926 61.3242 76.3347 61.8345 75.6504 62.2666L75.6133 62.292C74.8339 62.8342 74.0866 63.3645 73.3193 63.8799C73.4017 63.6105 73.5041 63.3343 73.6191 63.0498C73.7094 62.8268 73.8367 62.4481 73.7461 62.0225C73.6412 61.5295 73.307 61.2229 72.9932 61.0439C72.0877 60.5275 71.3936 59.8035 70.8652 58.8906L70.6494 58.4883L70.5322 58.2832C70.3956 58.0738 70.1965 57.8616 69.9004 57.7256C69.5265 57.5538 69.1604 57.5814 68.9199 57.6191C68.8395 57.6318 68.7579 57.6404 68.6768 57.6494C68.9266 57.45 69.1971 57.2417 69.499 57.0039C70.4708 56.3351 71.4496 55.686 72.3779 54.9863C72.7288 54.7219 73.1515 54.2789 73.1787 53.6338C73.2066 52.9704 72.8031 52.4946 72.4473 52.207C71.6735 51.5819 70.7881 51.0188 70.0615 50.5098C69.7179 50.2537 69.4093 50.0335 69.1084 49.8037C69.2235 49.83 69.3433 49.8596 69.4707 49.8867C69.5511 49.9168 69.6327 49.9505 69.7441 49.999C69.8606 50.0498 70.0231 50.1204 70.2021 50.1758C71.081 50.4474 72.0208 50.7552 72.9717 50.9902C73.3792 51.0909 74.0284 51.1762 74.5713 50.75C75.0973 50.3369 75.1907 49.6983 75.21 49.2793C75.2473 48.4659 75.1856 47.5566 75.1777 46.8662C75.1698 46.1752 75.1542 45.5157 75.1553 44.8662C75.3637 45.2103 75.5775 45.5769 75.8281 45.9893C76.3422 46.9049 76.8534 47.9013 77.4277 48.8105C77.6528 49.1669 78.1097 49.7285 78.8594 49.7168C79.5893 49.7053 80.0369 49.1528 80.2607 48.8057C80.6372 48.2219 80.9957 47.6296 81.3457 47.0508C81.6982 46.4679 82.0426 45.8992 82.4004 45.3418C82.5288 45.1417 82.6677 44.9459 82.8135 44.7539ZM87.7881 49.0264C87.8069 49.0311 87.8279 49.033 87.8496 49.0371C87.8164 49.0312 87.793 49.0278 87.7871 49.0264C87.778 49.0241 87.7703 49.0225 87.7666 49.0215L87.7881 49.0264Z" fill="#EDFE06" stroke="#4027F4" stroke-width="2"/>
</svg>
