<svg width="173" height="22" viewBox="0 0 173 22" fill="none" xmlns="http://www.w3.org/2000/svg">
<path d="M5.14419 21.519H0C0.143559 20.4051 0.191412 19.2658 0.191412 17.7722V4.07595C0.191412 2.70886 0.143559 1.56962 0 0.379748C1.12454 0.43038 1.9859 0.455696 3.51719 0.455696H8.75708C13.4945 0.455696 16.1025 2.86076 16.1025 7.26582C16.1025 11.7722 13.3749 14.4557 8.73315 14.4557H4.95278V17.6962C4.95278 19.1899 5.02455 20.4304 5.14419 21.519ZM4.95278 10.1519H8.51782C10.1927 10.1519 11.1737 9.16456 11.1737 7.41772C11.1737 5.67089 10.2405 4.75949 8.51782 4.75949H4.95278V10.1519Z" fill="#3E25F7"/>
<path d="M29.0633 21.519H21.7897C20.1388 21.519 19.1578 21.5443 18.2486 21.5949C18.3921 20.7089 18.44 19.5949 18.44 17.8987V4.53165C18.44 2.75949 18.3921 1.67089 18.2486 0.455696H23.4646C23.2971 1.77215 23.2731 2.48101 23.2731 4.4557V17.0127H29.0633C31.0971 17.0127 31.9106 16.9873 33.0351 16.8354V21.6962C32.1499 21.5696 30.9775 21.519 29.0633 21.519Z" fill="#3E25F7"/>
<path d="M53.8164 21.519H48.2176C48.0262 20.3038 47.8826 19.6456 47.6434 18.7848L46.9973 16.6329H40.1783L39.5323 18.7848C39.2212 19.7975 39.0538 20.5823 38.9341 21.519H33.3353C33.6942 20.7595 33.9096 20.1519 34.4838 18.4304L39.6519 3.18987C40.0826 1.94937 40.2979 1.18987 40.4176 0.455696H46.6624C46.8299 1.18987 46.9973 1.8481 47.4759 3.18987L52.6679 18.4304C53.1225 19.7722 53.5053 20.8101 53.8164 21.519ZM45.8249 12.3797L43.5519 4.78481L41.3268 12.3797H45.8249Z" fill="#3E25F7"/>
<path d="M63.7642 13.0886V17.7722C63.7642 19.0886 63.812 20.2025 63.9556 21.519H58.7396C58.8593 20.3544 58.931 19.1899 58.931 17.7722V13.0886L53.4279 3.51899C52.9973 2.73418 52.4709 1.89874 51.5138 0.455696H57.5672C57.8304 1.34177 58.0936 2 58.6918 3.11392L61.3476 8.25316L64.0034 3.13924C64.6016 1.97468 64.9366 1.18987 65.1041 0.455696H71.1574C70.4636 1.51899 69.5544 2.96203 69.2433 3.51899L63.7642 13.0886Z" fill="#3E25F7"/>
<path d="M85.6799 21.519H81.5167C81.397 20.6329 81.1338 19.6962 80.4878 17.7722L78.2866 11.038C78.2627 10.9114 77.5449 8.55696 77.4731 8.35443C77.2099 7.44304 77.2099 7.44304 77.0903 7.08861C77.2338 8.68355 77.3295 10.7595 77.3295 12.1013V17.5949C77.3295 19.3418 77.3774 20.4557 77.5209 21.519H72.8074C72.951 20.3797 72.9988 19.3165 72.9988 17.5949V4.40506C72.9988 2.88608 72.9271 1.5443 72.8074 0.455696H79.124C79.2915 1.5443 79.4829 2.35443 80.0332 4.02532L83.6222 14.9367L87.1872 4.02532C87.7375 2.32911 87.929 1.51899 88.0725 0.455696H94.413C94.2695 1.67089 94.2216 2.70886 94.2216 4.40506V17.5949C94.2216 19.519 94.2695 20.5063 94.413 21.519H89.6995C89.8431 20.3544 89.8909 19.3924 89.8909 17.5949V12.0759C89.8909 11.4684 89.9627 9.56962 90.0106 8.78481C90.0823 7.44304 90.0823 7.44304 90.1063 7.06329C89.5799 9.03798 89.3406 9.94937 89.0296 10.8608L86.7087 17.7975C86.1105 19.5949 85.7995 20.7089 85.6799 21.519Z" fill="#EEFF00"/>
<path d="M116.577 21.519H110.978C110.786 20.3038 110.643 19.6456 110.404 18.7848L109.758 16.6329H102.938L102.292 18.7848C101.981 19.7975 101.814 20.5823 101.694 21.519H96.0955C96.4544 20.7595 96.6698 20.1519 97.244 18.4304L102.412 3.18987C102.843 1.94937 103.058 1.18987 103.178 0.455696H109.423C109.59 1.18987 109.758 1.8481 110.236 3.18987L115.428 18.4304C115.883 19.7722 116.266 20.8101 116.577 21.519ZM108.585 12.3797L106.312 4.78481L104.087 12.3797H108.585Z" fill="#3E25F7"/>
<path d="M126.531 4.93671V17.6962C126.531 19.2152 126.579 20.3291 126.722 21.519H121.435C121.578 20.3291 121.626 19.2911 121.626 17.6962V4.93671H118.803C117.295 4.93671 116.889 4.96203 115.19 5.11392V0.278482C115.979 0.379748 117.295 0.455696 118.755 0.455696H129.235C130.909 0.455696 131.867 0.405064 132.967 0.278482V5.11392C131.89 4.98734 130.957 4.93671 129.235 4.93671H126.531Z" fill="#3E25F7"/>
<path d="M152.526 6.78481L147.597 7.79747C147.142 5.49367 145.874 4.35443 143.816 4.35443C140.897 4.35443 139.198 6.78481 139.198 10.962C139.198 15.0886 140.969 17.5949 143.936 17.5949C145.252 17.5949 146.376 17.0127 147.07 16C147.477 15.3924 147.645 14.8861 147.788 13.8228L152.765 14.6076C152.31 16.7595 151.784 18 150.779 19.2405C149.295 21.038 146.975 22 144.079 22C141.16 22 138.696 21.038 136.997 19.2152C135.227 17.3165 134.222 14.3544 134.222 10.962C134.222 7.51899 135.227 4.6076 137.117 2.63291C138.768 0.936709 141.184 0 143.984 0C147.07 0 149.487 1.11392 151.042 3.31646C151.808 4.35443 152.214 5.29114 152.526 6.78481Z" fill="#3E25F7"/>
<path d="M167.856 0.455696H173C172.856 1.49367 172.809 2.43038 172.809 4.20253V17.7722C172.809 19.4177 172.856 20.2785 173 21.519H167.856C167.999 20.4557 168.047 19.519 168.047 17.7722V12.8608H159.984V17.7722C159.984 19.4177 160.032 20.3797 160.175 21.519H155.031C155.175 20.481 155.223 19.5443 155.223 17.7722V4.20253C155.223 2.4557 155.175 1.5443 155.031 0.455696H160.175C160.032 1.64557 159.984 2.63291 159.984 4.20253V8.40506H168.047V4.20253C168.047 2.4557 167.999 1.44304 167.856 0.455696Z" fill="#3E25F7"/>
</svg>
