<svg width="200" height="50" viewBox="0 0 200 50" fill="none" xmlns="http://www.w3.org/2000/svg">
<path d="M157.731 47.0742C156.661 46.6705 155.627 46.3032 154.617 45.8794C154.268 45.7332 154.036 45.6817 153.685 45.9193C152.061 47.0161 150.257 47.2615 148.324 47.0959C146.852 46.9697 145.355 46.9581 143.882 47.0689C142.376 47.1823 140.914 47.1821 139.505 46.5962C139.199 46.469 139.072 46.5552 138.9 46.7942C137.251 49.0841 134.997 50.0176 132.198 49.9248C127.701 49.7758 123.2 49.7803 118.705 49.6004C116.417 49.5089 114.102 49.343 111.868 48.8767C108.951 48.2676 106.333 46.8784 104.05 44.9195C103.919 44.8076 103.78 44.7055 103.63 44.587C102.425 46.0357 100.941 47.0822 99.0812 47.2526C96.9038 47.4521 94.6883 47.662 92.5515 46.8692C92.4144 46.8183 92.2393 46.7671 92.1119 46.8085C90.6943 47.2698 89.2683 47.099 87.8172 47.0004C86.2278 46.8923 84.6128 46.9057 83.0273 47.058C80.8859 47.2638 78.9706 46.8492 77.3258 45.5872C76.4289 46.006 75.5993 46.5252 74.6952 46.7787C73.7853 47.0337 72.7896 47.1745 71.8521 47.1014C69.5528 46.9222 67.2666 46.9021 64.9735 47.1343C63.8436 47.2487 62.743 47.0898 61.6776 46.6828C61.5297 46.6264 61.3254 46.6035 61.1848 46.6595C59.7103 47.2463 58.197 47.2385 56.6339 47.1535C53.6272 46.9901 50.6132 46.9256 47.6015 46.8989C43.0258 46.8582 38.4493 46.8662 33.8734 46.8947C32.602 46.9026 31.3268 47.013 30.0614 47.1506C26.5408 47.5337 23.2771 45.4644 22.2988 42.1056C22.2837 42.0537 22.2421 42.0095 22.1745 41.8992C21.7545 43.2899 21.0525 44.4478 19.9894 45.374C18.4746 46.6937 16.6991 47.3533 14.7137 47.1628C12.3402 46.9351 9.98873 46.9052 7.61163 47.134C3.94424 47.4871 0.569463 44.6589 0.0666836 41.004C-0.12817 39.5876 0.174681 38.236 0.387297 36.8698C1.32235 30.8611 1.79365 24.825 1.25819 18.7543C0.961861 15.3947 0.493485 12.0493 0.0634621 8.7025C-0.506873 4.26371 2.83557 0.397372 7.33002 0.575264C9.87048 0.675812 12.381 0.476491 14.9035 0.365914C18.1833 0.222146 21.3686 0.613031 24.4036 1.944C24.5617 2.0133 24.8369 2.00269 24.9724 1.9077C26.6775 0.711394 28.5664 0.412599 30.5947 0.655218C32.3815 0.86896 34.1731 0.904994 35.961 0.6283C37.3042 0.420421 38.6096 0.573178 39.8968 1.00736C40.1575 1.09528 40.505 1.08296 40.7651 0.987684C41.8155 0.602995 42.8896 0.4863 44.0021 0.493762C47.3407 0.51616 50.6796 0.499604 54.0184 0.503649C54.4999 0.504229 55.0037 0.449481 55.4579 0.569337C56.308 0.793702 57.1342 0.618151 57.9747 0.607804C59.2054 0.592655 60.4375 0.76443 61.6697 0.774614C62.8043 0.783999 63.9398 0.644284 65.0748 0.645762C66.1655 0.647191 67.2561 0.744365 68.3466 0.802288C68.5347 0.812274 68.7383 0.893169 68.907 0.844709C70.0631 0.51256 71.2314 0.53411 72.4095 0.664016C74.2393 0.865784 76.0626 0.873196 77.8928 0.6003C78.5496 0.502369 79.2371 0.608151 79.9104 0.625499C80.045 0.628972 80.1789 0.664072 80.3134 0.666116C82.7409 0.702935 85.1684 0.767237 87.5957 0.757803C88.6923 0.753545 89.7883 0.601319 90.8846 0.51628C92.977 0.353976 94.8035 0.976446 96.3682 2.37333C96.4249 2.42398 96.4905 2.46471 96.5492 2.50799C97.1487 2.10751 97.7145 1.67108 98.3327 1.32944C99.4546 0.709399 100.679 0.458944 101.959 0.527532C103.193 0.593617 104.425 0.74672 105.657 0.747795C107.216 0.749153 108.774 0.593737 110.333 0.584699C111.537 0.577725 112.684 0.294348 113.857 0.121202C114.976 -0.044031 116.164 0.0913985 117.302 0.244926C120.985 0.741975 124.677 0.964543 128.39 0.833612C130.049 0.775123 131.708 0.707087 133.367 0.643088C139.001 0.425775 144.629 0.970081 150.264 0.75107C155.55 0.545602 160.837 0.384839 166.122 0.160948C167.682 0.0948709 169.24 -0.193004 170.786 0.211919C173.146 0.829948 175.549 0.830613 177.958 0.760441C178.36 0.748715 178.759 0.630252 179.162 0.608165C179.777 0.574437 180.424 0.458732 181.005 0.597825C182.121 0.865134 183.197 0.701789 184.305 0.622784C185.373 0.54667 186.458 0.765993 187.535 0.75914C188.939 0.7502 190.352 0.7265 191.746 0.568906C196.729 0.00534149 200.746 4.16687 199.883 9.07965C198.932 14.4912 198.362 19.9353 198.498 25.4347C198.603 29.6843 199.011 33.9095 199.813 38.0877C200.45 41.4075 199.313 44.3665 196.654 46.0539C194.982 47.1146 193.152 47.2889 191.201 47.1102C189.521 46.9562 187.814 47 186.124 47.0771C185.038 47.1266 183.974 47.189 182.91 46.9228C182.698 46.8698 182.447 46.8784 182.235 46.9345C181.095 47.2357 179.952 47.1721 178.788 47.1101C177.098 47.02 175.401 47.0592 173.707 47.0461C172.806 47.0392 171.903 47.0093 171.003 47.044C170.294 47.0713 169.589 47.1931 168.881 47.2529C167.249 47.3907 165.617 47.5473 163.981 47.6393C161.89 47.7568 159.818 47.5786 157.731 47.0742ZM94.0569 16.1325C93.548 13.4834 93.0224 10.8375 92.5379 8.18403C92.3205 6.99339 92.0185 6.68327 90.861 6.81472C87.9568 7.14452 85.0559 7.30563 82.1423 6.90792C81.2659 6.78828 80.8619 7.25123 81.0132 8.1169C81.7177 12.1501 82.2066 16.2062 82.4076 20.298C82.6166 24.5515 82.4623 28.7903 81.9385 33.0135C81.6657 35.2135 81.318 37.4042 81.0053 39.5992C80.8778 40.4945 81.2559 40.8876 82.1408 40.7759C84.6425 40.4601 87.1406 40.396 89.6391 40.8251C90.4389 40.9624 90.8812 40.4742 90.761 39.6616C90.4989 37.888 90.214 36.1172 89.9869 34.3391C89.4602 30.2162 89.2145 26.0761 89.3462 21.9188C89.3695 21.1836 89.4614 20.4506 89.5216 19.7166C89.6858 19.8759 89.7427 20.0375 89.7937 20.201C91.0869 24.3487 91.9517 28.5983 92.7921 32.8531C93.2587 35.2154 93.6849 37.5858 94.158 39.9469C94.321 40.7605 94.7134 41.0484 95.5364 41.0678C96.212 41.0838 96.8886 41.0884 97.5639 41.0683C98.4774 41.0411 98.8933 40.6646 99.0527 39.7688C99.1102 39.4461 99.1571 39.1213 99.2248 38.8008C100.101 34.6523 100.964 30.501 101.864 26.3578C102.361 24.0694 102.922 21.7949 103.454 19.5142C103.611 19.8695 103.673 20.2118 103.682 20.5557C103.744 22.697 103.758 24.8403 103.857 26.9797C103.947 28.9234 103.993 30.8837 104.291 32.8004C105.118 38.1046 108.225 41.4688 113.419 42.7316C115.216 43.1686 117.128 43.2066 118.994 43.2733C123.565 43.4367 128.14 43.5105 132.714 43.6209C133.508 43.64 133.844 43.3132 133.817 42.4988C133.794 41.8048 133.697 41.1115 133.704 40.4186C133.721 38.6627 133.784 36.9074 133.818 35.1516C133.833 34.3945 133.461 34.0875 132.742 34.1877C130.546 34.4937 128.355 34.8381 126.152 35.073C122.844 35.4256 119.53 35.4974 116.217 35.0637C113.792 34.7461 111.995 33.5915 111.194 31.2188C110.877 30.2824 110.681 29.2675 110.646 28.2806C110.402 21.5474 110.847 14.8577 112.058 8.22397C112.25 7.17544 111.864 6.80785 110.802 6.88778C109.342 6.99767 107.877 7.12181 106.415 7.12018C104.951 7.11855 103.488 6.97474 102.025 6.88347C101.099 6.82571 100.779 7.10416 100.659 8.03224C100.547 8.8923 100.434 9.7557 100.251 10.6024C99.2629 15.1797 98.2523 19.7523 97.25 24.3266C97.0327 25.3186 96.8187 26.3113 96.575 27.4339C95.7191 23.5999 94.8964 19.914 94.0569 16.1325ZM189.243 40.5599C190.279 40.6536 191.318 40.7218 192.35 40.8486C193.311 40.9667 193.77 40.5193 193.63 39.5558C193.285 37.1907 192.832 34.8335 192.643 32.4556C192.379 29.1314 192.205 25.7917 192.192 22.4579C192.175 17.6834 192.771 12.9531 193.615 8.25501C193.808 7.17965 193.398 6.78776 192.312 6.89366C191.295 6.99276 190.275 7.1277 189.257 7.12122C187.871 7.11238 186.485 6.99655 185.1 6.90299C184.187 6.84129 183.782 7.20682 183.888 8.04504C184.292 11.2385 184.716 14.4296 185.087 17.627C185.225 18.8238 185.236 20.0353 185.305 21.2469C183.389 21.2469 181.569 21.2469 179.746 21.2469C179.746 20.8941 179.733 20.5869 179.748 20.2811C179.961 16.1742 180.418 12.0948 181.129 8.04362C181.27 7.24061 180.888 6.82139 180.073 6.87567C179.651 6.9038 179.233 6.99764 178.81 7.03332C176.766 7.20601 174.725 7.20683 172.688 6.91806C171.707 6.77903 171.267 7.23133 171.384 8.14248C171.833 11.6406 172.44 15.1299 172.66 18.6431C172.879 22.1595 172.879 25.7111 172.658 29.2275C172.44 32.7023 171.828 36.1526 171.382 39.6127C171.269 40.4903 171.701 40.8976 172.577 40.8413C174.305 40.7301 176.036 40.6476 177.768 40.6185C178.474 40.6066 179.185 40.7498 179.89 40.8486C180.758 40.9702 181.263 40.5403 181.157 39.7581C180.76 36.8169 180.34 33.8783 179.989 30.9315C179.823 29.5389 179.795 28.1299 179.702 26.6888C181.588 26.6888 183.412 26.6888 185.361 26.6888C185.189 28.8027 185.075 30.8811 184.838 32.9454C184.582 35.185 184.209 37.4114 183.89 39.6439C183.767 40.5091 184.19 40.9111 185.042 40.8367C186.404 40.7179 187.769 40.6495 189.243 40.5599ZM17.1477 6.69161C16.1449 6.71057 15.1422 6.72738 14.1395 6.74891C11.964 6.79563 9.78833 6.88534 7.61312 6.87545C6.55672 6.87065 6.1902 7.13794 6.36616 8.1697C7.01846 11.9943 7.46146 15.8404 7.67222 19.7157C7.90435 23.9838 7.8049 28.2423 7.32057 32.4868C7.05407 34.8222 6.6842 37.1458 6.36616 39.4755C6.21107 40.6116 6.58058 40.9241 7.7314 40.7774C10.0176 40.4859 12.3123 40.4455 14.5962 40.7937C15.7851 40.975 16.2517 40.5707 16.0595 39.3994C15.8941 38.3917 15.6983 37.3888 15.5473 36.3792C15.3861 35.3018 15.2617 34.2188 15.113 33.075C15.4165 33.075 15.6248 33.0802 15.8328 33.0742C20.7549 32.9327 24.2472 30.6275 26.0832 26.0546C27.7914 21.8 27.5633 17.4384 26.3103 13.1165C25.5499 10.4935 23.9052 8.52021 21.3042 7.57381C20.0188 7.10612 18.6093 6.97957 17.1477 6.69161ZM79.2398 11.0291C79.403 10.1187 79.568 9.20846 79.7291 8.29759C79.9209 7.21363 79.5111 6.7576 78.4065 6.90946C76.0199 7.23757 73.6384 7.22406 71.252 6.91821C70.2662 6.79187 69.8403 7.2269 70.0612 8.18609C71.221 13.2237 71.4583 18.3449 71.4193 23.484C71.4116 24.5029 71.1846 25.5518 70.8736 26.5279C70.5412 27.5711 69.6715 28.0208 68.5643 28.0006C67.499 27.9812 66.6948 27.4936 66.3755 26.5124C66.0702 25.5742 65.8387 24.5661 65.8272 23.5858C65.7667 18.4205 66.3541 13.3066 67.2168 8.22064C67.3902 7.19856 67.0138 6.76546 66.0094 6.90133C63.5845 7.22939 61.165 7.23451 58.7392 6.91274C57.7834 6.78595 57.4062 7.23968 57.5295 8.21024C57.9062 11.174 58.3489 14.1328 58.6055 17.1074C58.8357 19.7768 58.8461 22.4648 58.9675 25.144C59.0816 27.6622 60.1058 29.6888 62.296 31.0198C62.9821 31.4368 63.7351 31.7598 64.4884 32.0438C64.9145 32.2046 65.0497 32.4037 64.9815 32.8354C64.8283 33.8061 64.7403 34.7883 64.5585 35.7531C64.3019 37.1154 63.9441 38.4593 63.708 39.8247C63.5617 40.6704 63.914 40.9081 64.7679 40.8527C66.5152 40.7394 68.2656 40.6551 70.0159 40.6202C70.7226 40.6061 71.4339 40.7415 72.1406 40.829C73.0944 40.9472 73.4751 40.56 73.3211 39.6011C73.3058 39.5062 73.2746 39.4139 73.2584 39.3191C72.8957 37.1921 72.537 35.0644 72.1702 32.9381C72.0899 32.4728 72.1795 32.1811 72.7229 32.0951C73.0958 32.0361 73.456 31.8622 73.8071 31.7064C76.6483 30.4455 78.2213 28.3186 78.284 25.1524C78.3173 23.4737 78.3184 21.7911 78.4411 20.1181C78.6611 17.1189 78.962 14.1256 79.2398 11.0291ZM142.271 32.3413C142.011 34.7186 141.756 37.0965 141.486 39.4728C141.356 40.6192 141.717 40.964 142.856 40.7768C143.33 40.6988 143.814 40.619 144.291 40.6318C145.964 40.6764 147.638 40.7373 149.308 40.8405C150.104 40.8897 150.533 40.5586 150.495 39.7645C150.478 39.4186 150.413 39.0753 150.384 38.7296C150.096 35.269 149.777 31.8106 149.534 28.3469C149.202 23.6035 149.173 18.8583 149.664 14.1203C149.783 12.9675 149.788 12.9322 150.983 12.9527C154.572 13.0145 158.163 13.0444 161.748 13.211C163.843 13.3085 165.938 13.5773 168.014 13.8925C169.669 14.1437 169.912 13.962 169.826 12.2726C169.75 10.7712 169.744 9.26304 169.786 7.76005C169.818 6.59386 169.527 6.27273 168.353 6.34028C165.445 6.50772 162.536 6.67999 159.625 6.8003C152.43 7.09769 145.233 7.23997 138.034 6.93001C137.282 6.89764 136.532 6.81503 135.78 6.79834C134.947 6.77984 134.615 7.13397 134.628 7.95255C134.63 8.12619 134.649 8.29967 134.649 8.47325C134.652 9.88045 134.7 11.2895 134.643 12.6944C134.578 14.2764 134.884 14.5563 136.392 14.0468C137.968 13.5147 139.559 13.0693 141.23 12.9616C142.017 12.9108 142.078 12.927 142.126 13.6726C142.297 16.3106 142.568 18.9495 142.575 21.5887C142.584 25.1365 142.385 28.6849 142.271 32.3413ZM28.474 40.5415C28.8635 41.0182 29.3894 40.8558 29.8768 40.826C31.3398 40.7367 32.8009 40.565 34.2645 40.5423C42.1022 40.4208 49.9381 40.4972 57.7687 40.8894C59.0161 40.9519 59.2662 40.6865 59.2192 39.4319C59.1557 37.7358 59.1076 36.0387 59.0856 34.3416C59.0769 33.6682 59.1642 32.994 59.1925 32.3195C59.2125 31.8433 58.951 31.699 58.5219 31.8199C58.3378 31.8718 58.1682 31.9741 57.9852 32.0314C56.5905 32.4685 55.2173 33.0081 53.794 33.314C48.8286 34.3812 43.7927 34.7249 38.7206 34.5714C38.2622 34.5575 37.8046 34.5148 37.2873 34.4818C37.1003 32.1091 36.8916 29.7686 36.736 27.4246C36.3556 21.6957 36.8301 16.013 37.7178 10.3556C37.8462 9.53727 38.0175 8.72371 38.1019 7.90107C38.1744 7.19429 37.8168 6.86195 37.1117 6.86979C36.9578 6.87149 36.8032 6.88952 36.6507 6.91186C34.3435 7.24974 32.0365 7.22388 29.7272 6.92778C28.5773 6.78035 28.1937 7.20233 28.397 8.34697C29.1061 12.3406 29.5387 16.3661 29.7302 20.4159C30.0287 26.7268 29.4751 32.9816 28.4483 39.2041C28.3808 39.6131 28.4259 40.0408 28.474 40.5415ZM113.758 31.6134C113.85 32.2342 114.326 32.2389 114.772 32.1943C116.854 31.986 118.93 31.986 121.007 32.2675C121.718 32.3639 122.141 32.0029 122.236 31.2879C122.282 30.9438 122.312 30.5976 122.351 30.2525C122.465 29.2245 122.579 28.1965 122.693 27.1709C124.009 27.1709 125.254 27.1709 126.518 27.1709C126.518 27.3288 126.534 27.4438 126.515 27.5529C126.316 28.7111 126.109 29.868 125.91 31.0262C125.761 31.8959 126.216 32.3863 127.074 32.2429C128.92 31.9342 130.763 32.0037 132.606 32.2493C133.521 32.3713 134.002 31.9128 133.916 30.9831C133.715 28.813 133.488 26.6451 133.315 24.4727C132.979 20.2468 133.115 16.0259 133.534 11.8118C133.652 10.6219 133.799 9.43484 133.912 8.24448C133.997 7.35078 133.652 6.97496 132.767 6.98158C132.246 6.98547 131.725 7.0233 131.205 7.0549C127.191 7.29884 123.18 7.23103 119.178 6.8447C117.912 6.72255 116.656 6.50514 115.394 6.33951C114.478 6.21917 114.036 6.61073 114.052 7.45134C114.088 9.30324 114.102 11.1556 114.116 13.0079C114.121 13.5477 114.063 14.0899 114.096 14.6272C114.13 15.187 114.414 15.3392 114.914 15.1105C115.122 15.015 115.301 14.8559 115.507 14.7528C116.487 14.2621 117.467 13.7718 118.457 13.3035C118.668 13.2042 118.921 13.1978 119.16 13.1476C119.175 13.2566 119.191 13.2955 119.184 13.3294C117.963 19.0682 116.373 24.6966 114.17 30.1432C113.992 30.5847 113.89 31.0572 113.758 31.6134ZM50.8797 27.8174C50.8725 28.0681 50.8595 28.3189 50.8589 28.5697C50.8568 29.5242 51.2031 29.8495 52.1428 29.8366C54.0896 29.81 56.0365 29.7934 57.9835 29.786C58.8892 29.7826 59.2249 29.3779 58.9913 28.5107C58.7708 27.6924 58.5295 26.8796 58.3143 26.06C56.7694 20.1761 55.4841 14.2515 55.4555 8.12429C55.4506 7.05965 55.1073 6.77304 54.0244 6.79542C52.0766 6.83566 50.1289 6.91099 48.1811 6.91594C46.6964 6.91973 45.2117 6.82648 43.7267 6.79751C42.8644 6.78068 42.5292 7.11568 42.4975 7.96551C42.3308 12.4477 41.7134 16.8734 40.8177 21.2629C40.1862 24.3579 39.5246 27.4468 38.8953 30.5423C38.7083 31.462 39.0599 31.8239 40.0001 31.8193C41.9452 31.8098 43.8904 31.8107 45.8354 31.8209C46.7235 31.8255 47.0503 31.5159 47.046 30.6093C47.0409 29.5479 47.03 28.4864 47.025 27.425C47.0217 26.717 47.0244 26.0091 47.0244 25.268C48.3428 25.268 49.5665 25.268 50.8832 25.268C50.8832 26.0938 50.8832 26.8984 50.8797 27.8174ZM167.75 33.4874C167.595 33.6322 167.441 33.779 167.284 33.9215C165.069 35.9299 161.222 35.6119 159.875 32.1417C158.851 29.5032 158.843 26.7929 159.808 24.1576C161.037 20.8032 164.68 20.0135 167.29 22.4683C167.948 23.0873 168.511 23.8069 169.121 24.4775C169.211 24.5758 169.317 24.6586 169.451 24.7811C169.451 23.457 169.414 22.2237 169.461 20.9934C169.518 19.4707 169.656 17.9512 169.737 16.4291C169.787 15.4744 169.431 15.1498 168.474 15.1367C167.665 15.1255 166.856 15.0775 166.049 15.0252C164.876 14.9492 163.705 14.797 162.531 14.7784C158.066 14.7077 154.542 17.0831 153.068 21.2918C151.464 25.8725 151.556 30.5184 153.086 35.0922C154.14 38.24 156.36 40.2642 159.639 41.0296C161.254 41.4065 162.891 41.3876 164.532 41.2557C165.839 41.1506 167.146 41.0437 168.454 40.9602C169.512 40.8927 169.788 40.6095 169.736 39.5646C169.732 39.4875 169.725 39.4105 169.723 39.3333C169.655 36.8476 169.589 34.3619 169.52 31.8763C169.518 31.7945 169.496 31.7132 169.472 31.5528C168.877 32.223 168.342 32.8256 167.75 33.4874Z" fill="#4027F4"/>
<path d="M94.0652 16.1803C94.8963 19.914 95.7191 23.5999 96.5749 27.4338C96.8187 26.3113 97.0327 25.3186 97.25 24.3266C98.2522 19.7522 99.2629 15.1797 100.251 10.6024C100.434 9.75564 100.547 8.89224 100.659 8.03218C100.779 7.10411 101.099 6.82565 102.025 6.88342C103.488 6.97469 104.951 7.11849 106.415 7.12013C107.877 7.12176 109.342 6.99762 110.802 6.88773C111.864 6.80779 112.25 7.17538 112.058 8.22392C110.847 14.8576 110.401 21.5474 110.646 28.2806C110.681 29.2675 110.877 30.2824 111.194 31.2188C111.995 33.5914 113.792 34.7461 116.217 35.0636C119.53 35.4974 122.844 35.4256 126.152 35.073C128.355 34.8381 130.546 34.4936 132.742 34.1877C133.461 34.0875 133.833 34.3945 133.818 35.1516C133.784 36.9073 133.721 38.6627 133.704 40.4185C133.697 41.1114 133.794 41.8047 133.817 42.4987C133.844 43.3132 133.508 43.64 132.714 43.6208C128.14 43.5105 123.565 43.4367 118.994 43.2732C117.128 43.2065 115.216 43.1685 113.419 42.7315C108.225 41.4688 105.118 38.1046 104.291 32.8003C103.993 30.8837 103.947 28.9233 103.857 26.9796C103.758 24.8402 103.744 22.6969 103.682 20.5556C103.673 20.2118 103.611 19.8695 103.454 19.5141C102.922 21.7949 102.361 24.0694 101.864 26.3577C100.964 30.5009 100.101 34.6522 99.2248 38.8007C99.1571 39.1212 99.1101 39.4461 99.0527 39.7688C98.8933 40.6646 98.4774 41.041 97.5638 41.0682C96.8886 41.0883 96.2119 41.0837 95.5364 41.0678C94.7133 41.0483 94.321 40.7604 94.158 39.9468C93.6848 37.5858 93.2587 35.2154 92.7921 32.853C91.9517 28.5983 91.0869 24.3486 89.7937 20.2009C89.7427 20.0374 89.6858 19.8758 89.5216 19.7166C89.4614 20.4506 89.3695 21.1836 89.3462 21.9188C89.2145 26.076 89.4602 30.2161 89.9869 34.339C90.214 36.1171 90.4988 37.888 90.761 39.6616C90.8811 40.4741 90.4389 40.9624 89.6391 40.825C87.1405 40.3959 84.6425 40.4601 82.1408 40.7759C81.2559 40.8875 80.8778 40.4944 81.0053 39.5992C81.3179 37.4041 81.6657 35.2134 81.9385 33.0134C82.4622 28.7902 82.6166 24.5515 82.4076 20.2979C82.2065 16.2061 81.7177 12.15 81.0131 8.11685C80.8619 7.25118 81.2658 6.78822 82.1423 6.90786C85.0558 7.30558 87.9568 7.14447 90.8609 6.81466C92.0184 6.68321 92.3205 6.99333 92.5379 8.18397C93.0223 10.8374 93.548 13.4834 94.0652 16.1803Z" fill="#F6F7F1"/>
<path d="M189.188 40.5598C187.769 40.6494 186.404 40.7179 185.042 40.8367C184.19 40.9111 183.767 40.5091 183.89 39.6439C184.209 37.4114 184.582 35.185 184.838 32.9454C185.075 30.8811 185.189 28.8027 185.361 26.6887C183.412 26.6887 181.588 26.6887 179.702 26.6887C179.795 28.1299 179.823 29.5389 179.989 30.9315C180.34 33.8783 180.76 36.8168 181.157 39.758C181.263 40.5403 180.758 40.9701 179.89 40.8486C179.185 40.7498 178.474 40.6066 177.768 40.6184C176.036 40.6476 174.305 40.7301 172.577 40.8413C171.701 40.8976 171.269 40.4903 171.382 39.6127C171.828 36.1526 172.44 32.7022 172.658 29.2274C172.879 25.7111 172.879 22.1594 172.66 18.6431C172.44 15.1299 171.833 11.6406 171.384 8.14246C171.267 7.23131 171.707 6.77901 172.688 6.91804C174.725 7.20681 176.766 7.20599 178.81 7.0333C179.233 6.99762 179.651 6.90378 180.073 6.87566C180.888 6.82137 181.27 7.24059 181.129 8.04361C180.418 12.0947 179.961 16.1742 179.748 20.2811C179.733 20.5868 179.746 20.8941 179.746 21.2469C181.569 21.2469 183.389 21.2469 185.305 21.2469C185.236 20.0353 185.225 18.8238 185.087 17.627C184.716 14.4296 184.292 11.2385 183.888 8.04502C183.782 7.2068 184.187 6.84127 185.1 6.90297C186.485 6.99653 187.871 7.11236 189.257 7.1212C190.275 7.12768 191.295 6.99275 192.312 6.89364C193.398 6.78775 193.808 7.17963 193.615 8.25499C192.771 12.9531 192.175 17.6834 192.192 22.4579C192.205 25.7917 192.379 29.1314 192.643 32.4556C192.832 34.8335 193.285 37.1906 193.63 39.5557C193.77 40.5192 193.311 40.9667 192.35 40.8486C191.318 40.7217 190.279 40.6536 189.188 40.5598Z" fill="#F6F7F1"/>
<path d="M17.2019 6.69507C18.6093 6.9795 20.0188 7.10605 21.3042 7.57374C23.9052 8.52014 25.5499 10.4934 26.3103 13.1164C27.5633 17.4383 27.7915 21.8 26.0832 26.0545C24.2472 30.6274 20.7549 32.9326 15.8328 33.0742C15.6248 33.0801 15.4165 33.0749 15.113 33.0749C15.2617 34.2188 15.3861 35.3017 15.5473 36.3791C15.6983 37.3888 15.8941 38.3917 16.0595 39.3993C16.2517 40.5706 15.7851 40.9749 14.5962 40.7936C12.3123 40.4454 10.0176 40.4858 7.73141 40.7773C6.58059 40.924 6.21108 40.6115 6.36617 39.4754C6.68421 37.1458 7.05408 34.8222 7.32058 32.4867C7.80491 28.2423 7.90436 23.9837 7.67223 19.7156C7.46147 15.8404 7.01847 11.9943 6.36618 8.16963C6.19021 7.13786 6.55673 6.87058 7.61312 6.87537C9.78834 6.88527 11.964 6.79556 14.1395 6.74884C15.1422 6.7273 16.145 6.71049 17.2019 6.69507ZM14.6098 25.5946C14.6423 26.0906 14.6749 26.5867 14.7135 27.1761C15.4412 27.1244 16.1503 27.1686 16.8101 27.0091C18.6956 26.5531 19.6223 25.1322 20.1056 23.3956C20.7724 21 20.5607 18.5736 20.1762 16.1605C20.0178 15.1661 19.7318 14.2021 19.0997 13.3835C18.1337 12.1324 16.578 12.1779 15.8269 13.5539C15.4474 14.2492 15.1213 15.0566 15.0691 15.8333C14.8534 19.046 14.7516 22.2663 14.6098 25.5946Z" fill="#F6F7F1"/>
<path d="M79.2343 11.0795C78.9619 14.1256 78.6611 17.1189 78.4411 20.1181C78.3183 21.7911 78.3172 23.4737 78.284 25.1524C78.2212 28.3187 76.6482 30.4456 73.8071 31.7064C73.456 31.8623 73.0957 32.0361 72.7229 32.0952C72.1795 32.1812 72.0898 32.4728 72.1701 32.9382C72.5369 35.0644 72.8957 37.1921 73.2584 39.3191C73.2745 39.4139 73.3058 39.5062 73.321 39.6011C73.4751 40.56 73.0944 40.9473 72.1405 40.8291C71.4338 40.7415 70.7225 40.6062 70.0158 40.6203C68.2655 40.6552 66.5151 40.7395 64.7679 40.8528C63.9139 40.9081 63.5616 40.6704 63.7079 39.8247C63.9441 38.4594 64.3018 37.1155 64.5585 35.7532C64.7402 34.7883 64.8283 33.8062 64.9815 32.8355C65.0497 32.4037 64.9145 32.2046 64.4883 32.0439C63.735 31.7599 62.9821 31.4369 62.296 31.0199C60.1058 29.6889 59.0816 27.6622 58.9675 25.144C58.8461 22.4648 58.8357 19.7768 58.6054 17.1074C58.3488 14.1329 57.9062 11.1741 57.5295 8.21029C57.4061 7.23973 57.7834 6.786 58.7391 6.91278C61.1649 7.23455 63.5845 7.22944 66.0094 6.90138C67.0137 6.7655 67.3902 7.1986 67.2168 8.22068C66.3541 13.3066 65.7666 18.4205 65.8272 23.5859C65.8386 24.5662 66.0701 25.5742 66.3754 26.5124C66.6947 27.4936 67.4989 27.9813 68.5642 28.0007C69.6715 28.0209 70.5411 27.5712 70.8736 26.5279C71.1846 25.5519 71.4115 24.5029 71.4193 23.4841C71.4583 18.3449 71.2209 13.2238 70.0611 8.18614C69.8403 7.22695 70.2662 6.79192 71.2519 6.91825C73.6384 7.22411 76.0198 7.23761 78.4065 6.9095C79.511 6.75764 79.9209 7.21367 79.7291 8.29763C79.5679 9.2085 79.403 10.1187 79.2343 11.0795Z" fill="#F6F7F1"/>
<path d="M142.273 32.2872C142.385 28.6849 142.584 25.1366 142.575 21.5888C142.568 18.9496 142.297 16.3106 142.126 13.6727C142.078 12.9271 142.017 12.9109 141.229 12.9616C139.559 13.0693 137.968 13.5147 136.392 14.0469C134.884 14.5563 134.578 14.2764 134.643 12.6944C134.7 11.2896 134.652 9.88049 134.649 8.47329C134.649 8.29971 134.63 8.12622 134.628 7.95258C134.615 7.13401 134.947 6.77988 135.78 6.79837C136.532 6.81507 137.282 6.89767 138.034 6.93005C145.233 7.24 152.43 7.09772 159.625 6.80034C162.536 6.68003 165.445 6.50776 168.353 6.34031C169.527 6.27276 169.818 6.59389 169.786 7.76008C169.744 9.26308 169.75 10.7713 169.826 12.2726C169.912 13.962 169.669 14.1438 168.014 13.8926C165.938 13.5774 163.843 13.3085 161.748 13.2111C158.163 13.0444 154.572 13.0145 150.983 12.9528C149.788 12.9322 149.783 12.9676 149.664 14.1204C149.173 18.8583 149.202 23.6035 149.534 28.3469C149.777 31.8107 150.096 35.2691 150.384 38.7296C150.413 39.0753 150.478 39.4186 150.495 39.7645C150.533 40.5586 150.104 40.8897 149.308 40.8406C147.637 40.7374 145.964 40.6764 144.291 40.6318C143.814 40.6191 143.33 40.6988 142.855 40.7768C141.717 40.9641 141.356 40.6193 141.486 39.4728C141.756 37.0965 142.01 34.7186 142.273 32.2872Z" fill="#F6F7F1"/>
<path d="M28.4464 40.5006C28.426 40.0407 28.3808 39.6131 28.4483 39.2041C29.4751 32.9816 30.0287 26.7268 29.7302 20.4159C29.5387 16.3661 29.1062 12.3406 28.397 8.34694C28.1937 7.20231 28.5773 6.78033 29.7272 6.92776C32.0366 7.22386 34.3435 7.24971 36.6507 6.91183C36.8032 6.8895 36.9579 6.87147 37.1117 6.86976C37.8168 6.86193 38.1745 7.19426 38.102 7.90104C38.0176 8.72369 37.8462 9.53725 37.7178 10.3556C36.8301 16.013 36.3556 21.6956 36.736 27.4246C36.8917 29.7686 37.1004 32.109 37.2873 34.4818C37.8047 34.5148 38.2622 34.5575 38.7207 34.5713C43.7928 34.7248 48.8286 34.3812 53.794 33.314C55.2173 33.0081 56.5905 32.4685 57.9852 32.0314C58.1683 31.974 58.3378 31.8718 58.5219 31.8199C58.951 31.699 59.2126 31.8433 59.1925 32.3195C59.1642 32.994 59.0769 33.6682 59.0857 34.3416C59.1076 36.0387 59.1557 37.7358 59.2192 39.4319C59.2662 40.6865 59.0161 40.9518 57.7687 40.8894C49.9381 40.4972 42.1023 40.4208 34.2646 40.5423C32.8009 40.565 31.3399 40.7366 29.8768 40.826C29.3894 40.8558 28.8635 41.0182 28.4464 40.5006Z" fill="#F6F7F1"/>
<path d="M113.755 31.5642C113.89 31.0571 113.992 30.5846 114.17 30.1432C116.373 24.6965 117.963 19.0681 119.184 13.3293C119.191 13.2954 119.175 13.2565 119.16 13.1475C118.921 13.1977 118.667 13.2041 118.457 13.3034C117.467 13.7717 116.487 14.2621 115.507 14.7527C115.301 14.8558 115.122 15.0149 114.914 15.1104C114.414 15.3392 114.13 15.1869 114.096 14.6271C114.063 14.0898 114.121 13.5476 114.116 13.0078C114.102 11.1555 114.088 9.30316 114.052 7.45126C114.036 6.61066 114.478 6.21909 115.394 6.33944C116.656 6.50506 117.912 6.72247 119.178 6.84463C123.18 7.23096 127.191 7.29877 131.205 7.05483C131.725 7.02322 132.246 6.98539 132.767 6.9815C133.652 6.97488 133.997 7.3507 133.912 8.2444C133.799 9.43476 133.652 10.6218 133.534 11.8117C133.115 16.0259 132.979 20.2467 133.315 24.4727C133.488 26.645 133.715 28.8129 133.916 30.983C134.002 31.9128 133.521 32.3712 132.606 32.2492C130.763 32.0036 128.92 31.9341 127.074 32.2428C126.216 32.3862 125.761 31.8959 125.91 31.0261C126.109 29.8679 126.316 28.7111 126.515 27.5528C126.534 27.4438 126.517 27.3287 126.517 27.1709C125.254 27.1709 124.009 27.1709 122.693 27.1709C122.579 28.1964 122.465 29.2244 122.351 30.2524C122.312 30.5976 122.282 30.9437 122.236 31.2878C122.141 32.0028 121.718 32.3638 121.007 32.2674C118.93 31.9859 116.854 31.9859 114.772 32.1942C114.326 32.2389 113.85 32.2341 113.755 31.5642ZM125.017 15.5519C124.425 17.9936 123.832 20.4354 123.226 22.9341C124.542 22.9341 125.731 22.9341 126.914 22.9341C127.363 20.9828 126.843 11.8279 126.311 10.7458C125.881 12.3366 125.46 13.8977 125.017 15.5519Z" fill="#F6F7F1"/>
<path d="M50.8815 27.7601C50.8832 26.8983 50.8832 26.0938 50.8832 25.2679C49.5666 25.2679 48.3429 25.2679 47.0244 25.2679C47.0244 26.009 47.0218 26.717 47.0251 27.4249C47.03 28.4864 47.0409 29.5478 47.046 30.6093C47.0504 31.5159 46.7236 31.8255 45.8355 31.8208C43.8904 31.8106 41.9452 31.8097 40.0002 31.8192C39.06 31.8238 38.7084 31.462 38.8954 30.5423C39.5247 27.4468 40.1862 24.3579 40.8178 21.2629C41.7135 16.8734 42.3308 12.4477 42.4976 7.96548C42.5292 7.11564 42.8644 6.78065 43.7267 6.79748C45.2118 6.82645 46.6965 6.9197 48.1812 6.91591C50.129 6.91095 52.0766 6.83563 54.0244 6.79538C55.1074 6.77301 55.4506 7.05962 55.4556 8.12426C55.4841 14.2515 56.7694 20.176 58.3143 26.0599C58.5295 26.8796 58.7709 27.6924 58.9913 28.5107C59.2249 29.3779 58.8892 29.7826 57.9836 29.786C56.0366 29.7934 54.0896 29.81 52.1428 29.8366C51.2032 29.8494 50.8568 29.5241 50.859 28.5696C50.8595 28.3189 50.8725 28.0681 50.8815 27.7601ZM47.6867 18.3961C47.5304 19.4345 47.3742 20.473 47.2141 21.537C48.4156 21.537 49.5065 21.537 50.7771 21.537C50.1999 18.1137 49.6337 14.7562 49.0676 11.3986C49.0109 11.402 48.9542 11.4054 48.8975 11.4088C48.499 13.7047 48.1006 16.0006 47.6867 18.3961Z" fill="#F6F7F1"/>
<path d="M167.778 33.4577C168.342 32.8256 168.877 32.223 169.472 31.5528C169.496 31.7132 169.518 31.7945 169.52 31.8763C169.589 34.3619 169.655 36.8476 169.723 39.3333C169.725 39.4105 169.732 39.4875 169.736 39.5646C169.788 40.6095 169.512 40.8927 168.454 40.9602C167.146 41.0437 165.839 41.1506 164.532 41.2557C162.891 41.3876 161.254 41.4065 159.639 41.0296C156.36 40.2642 154.14 38.24 153.086 35.0922C151.556 30.5184 151.464 25.8725 153.068 21.2918C154.542 17.0831 158.066 14.7077 162.531 14.7784C163.705 14.797 164.876 14.9492 166.049 15.0252C166.856 15.0775 167.665 15.1255 168.474 15.1367C169.431 15.1498 169.787 15.4744 169.737 16.4291C169.656 17.9512 169.518 19.4707 169.461 20.9934C169.414 22.2237 169.451 23.457 169.451 24.7811C169.317 24.6586 169.211 24.5758 169.121 24.4775C168.511 23.8069 167.948 23.0873 167.29 22.4683C164.68 20.0135 161.037 20.8032 159.808 24.1575C158.843 26.7929 158.851 29.5032 159.875 32.1417C161.222 35.6119 165.069 35.9299 167.284 33.9215C167.441 33.779 167.595 33.6322 167.778 33.4577Z" fill="#F6F7F1"/>
<path d="M14.6089 25.5392C14.7516 22.2663 14.8534 19.046 15.0691 15.8333C15.1213 15.0566 15.4474 14.2493 15.827 13.5539C16.578 12.178 18.1338 12.1325 19.0998 13.3835C19.7318 14.2021 20.0179 15.1661 20.1763 16.1605C20.5607 18.5736 20.7724 21 20.1057 23.3956C19.6224 25.1322 18.6956 26.5531 16.8102 27.0091C16.1504 27.1686 15.4413 27.1244 14.7136 27.1761C14.6749 26.5867 14.6424 26.0907 14.6089 25.5392Z" fill="#4127F3"/>
<path d="M125.028 15.5054C125.46 13.8977 125.881 12.3366 126.311 10.7458C126.843 11.8279 127.363 20.9828 126.914 22.9341C125.731 22.9341 124.542 22.9341 123.226 22.9341C123.832 20.4354 124.425 17.9937 125.028 15.5054Z" fill="#432AEF"/>
<path d="M47.6944 18.3464C48.1006 16.0007 48.499 13.7048 48.8975 11.4089C48.9542 11.4055 49.0109 11.4021 49.0676 11.3987C49.6337 14.7562 50.1999 18.1137 50.7771 21.537C49.5065 21.537 48.4156 21.537 47.2141 21.537C47.3742 20.473 47.5305 19.4346 47.6944 18.3464Z" fill="#432AEF"/>
</svg>
